<svg xmlns="http://www.w3.org/2000/svg" width="58.589" height="46.94" viewBox="0 0 58.589 46.94"><path d="M39.1,109.208l-20.3-.948-4.23-21.3,10.6,3.422L29.3,99.408l16.761-5.415Z" transform="translate(-11.746 -67.941)" fill="#797979"/><path d="M134.44,132.789H165.9l1.053-16.68a6.521,6.521,0,0,0-7.283-6.886L144.9,110.989a9.931,9.931,0,0,0-8.662,8.524Z" transform="translate(-108.377 -85.85)" fill="#797979"/><g transform="translate(17.126 2.161)"><g transform="translate(2.749 0.017)"><path d="M102.715,2.5a.176.176,0,0,1-.045-.006.193.193,0,0,1-.143-.233l.481-2.024a.193.193,0,1,1,.376.089L102.9,2.354A.194.194,0,0,1,102.715,2.5Z" transform="translate(-102.522 -0.092)" fill="#080717"/></g><g transform="translate(0 0)"><path d="M88.785,2.357a.193.193,0,0,1-.192-.169L88.343.221a.194.194,0,0,1,.386-.048l.25,1.968a.194.194,0,0,1-.169.217Z" transform="translate(-88.342 -0.002)" fill="#080717"/></g><g transform="translate(4.72 1.796)"><path d="M112.882,10.879a.2.2,0,0,1-.155-.078.194.194,0,0,1,.037-.271l1.613-1.223a.194.194,0,1,1,.235.308L113,10.838A.189.189,0,0,1,112.882,10.879Z" transform="translate(-112.687 -9.267)" fill="#080717"/></g></g><g transform="translate(33.524 0)"><circle cx="7.243" cy="7.243" r="7.243" transform="translate(0.602 10.243) rotate(-45)" fill="#080717"/><circle cx="4.335" cy="4.335" r="4.335" transform="translate(0 7.761) rotate(-45)" fill="#080717"/><path d="M192.485,24.093a2.921,2.921,0,0,0-2.772,1.1c.545-3.761-1-7.243-3.955-8.332-3.542-1.3-7.768,1.314-9.441,5.853s-.159,9.274,3.383,10.581a5.451,5.451,0,0,0,1.566.324L180.553,36l-2.024.242a3.8,3.8,0,0,0,.043.661c.452,2.916,4.2,4.754,8.363,4.106s7.177-3.534,6.723-6.45c0-.027-.012-.054-.016-.083a6.751,6.751,0,0,0-.762.047L190.6,34.8l.01-5.275a2.914,2.914,0,0,0,4.315-2.22A2.952,2.952,0,0,0,192.485,24.093Z" transform="translate(-175.111 -11.157)" fill="#ffc89e"/><g transform="translate(15.358 14.062)"><path d="M252.34,64.039h-.012a.193.193,0,0,1-.18-.205,2.613,2.613,0,0,1,.836-1.917,2.394,2.394,0,0,1,1.661-.521.194.194,0,0,1-.039.386,2.038,2.038,0,0,0-1.374.434,2.249,2.249,0,0,0-.7,1.644A.2.2,0,0,1,252.34,64.039Z" transform="translate(-252.147 -61.388)" fill="#ff7e64"/></g><g transform="translate(6.134 19.391)"><path d="M204.918,92.152c-.054,0-.109,0-.161,0a.193.193,0,0,1-.188-.2.2.2,0,0,1,.2-.188,7.362,7.362,0,0,0,5.626-2.815.194.194,0,0,1,.295.252A7.8,7.8,0,0,1,204.918,92.152Z" transform="translate(-204.569 -88.879)" fill="#ff7e64"/></g><path d="M179.794,42.461c.087.227-.351.609-.981.853s-1.212.258-1.3.029.351-.609.981-.853S179.707,42.233,179.794,42.461Z" transform="translate(-176.616 -31.937)" fill="#080717"/><path d="M207.117,47.464c-.109.283-.83.269-1.611-.029s-1.328-.77-1.221-1.053.83-.269,1.611.029S207.225,47.183,207.117,47.464Z" transform="translate(-198.195 -35.065)" fill="#080717"/><g transform="translate(3.312 11.691)"><path d="M190.425,52.371a.2.2,0,0,1-.151-.072,1.192,1.192,0,0,1-.19-1.159l.694-1.855a.194.194,0,1,1,.364.136l-.694,1.855a.788.788,0,0,0,.128.779.194.194,0,0,1-.151.316Z" transform="translate(-190.011 -49.158)" fill="#080717"/></g><g transform="translate(4.156 16.621)"><path d="M194.931,76.065a3.854,3.854,0,0,1-.39-.019.194.194,0,0,1-.174-.211.192.192,0,0,1,.211-.174,3.392,3.392,0,0,0,2.766-1,.194.194,0,0,1,.273-.021.2.2,0,0,1,.023.273A3.7,3.7,0,0,1,194.931,76.065Z" transform="translate(-194.366 -74.589)" fill="#ff7e64"/></g><circle cx="2.892" cy="2.892" r="2.892" transform="matrix(0.832, -0.555, 0.555, 0.832, 5.511, 4.613)" fill="#080717"/><circle cx="2.892" cy="2.892" r="2.892" transform="translate(9.735 9.523) rotate(-70.355)" fill="#080717"/><path d="M234.426,38.049a1.358,1.358,0,1,0,2.631-.677c-.186-.727.861-5.6-1.208-5.07C233.4,32.933,234.238,37.322,234.426,38.049Z" transform="translate(-222.27 -23.848)" fill="#080717"/><g transform="translate(16.694 5.83)"><path d="M259.233,19.505a.188.188,0,0,1-.153-.076.192.192,0,0,1,.035-.271,1.672,1.672,0,0,1,1.082-.221.194.194,0,0,1-.05.384,1.276,1.276,0,0,0-.795.143A.179.179,0,0,1,259.233,19.505Z" transform="translate(-259.039 -18.925)" fill="#080717"/></g><g transform="translate(16.434 4.863)"><path d="M257.893,15.177a.195.195,0,0,1-.1-.359.788.788,0,0,0,.345-.675.2.2,0,0,1,.182-.205.19.19,0,0,1,.206.182A1.178,1.178,0,0,1,258,15.146.2.2,0,0,1,257.893,15.177Z" transform="translate(-257.699 -13.937)" fill="#080717"/></g><path d="M204.53,58.343c0,.5.26.9.58.9s.58-.4.58-.9-.26-.9-.58-.9S204.53,57.845,204.53,58.343Z" transform="translate(-198.404 -44.144)" fill="#080717"/><path d="M180.59,56.343c0,.5.26.9.58.9s.58-.4.58-.9-.26-.9-.58-.9S180.59,55.845,180.59,56.343Z" transform="translate(-179.105 -42.531)" fill="#080717"/></g><g transform="translate(0 5.668)"><path d="M17.774,19h0A13.167,13.167,0,0,0,9.543,33.082l.316,2.272A30.511,30.511,0,0,1,7.6,51.78L7.42,52.2l10.112,4.414.184-.423A30.529,30.529,0,0,1,28.229,43.372l1.882-1.312A13.168,13.168,0,0,0,34.84,26.452h0A13.167,13.167,0,0,0,17.774,19Z" transform="translate(-5.982 -18.091)" fill="#e2f864"/><path d="M8.139,172.578l-6.208-2.71a3.215,3.215,0,0,1-1.659-4.232L3.03,159.32l12.1,5.281-2.759,6.316A3.212,3.212,0,0,1,8.139,172.578Z" transform="translate(-0.003 -131.941)" fill="#080717"/><g transform="translate(3.605 30.665)"><path d="M27.389,180.41a.221.221,0,0,1-.078-.016l-8.6-3.755a.194.194,0,1,1,.155-.357l8.6,3.753a.2.2,0,0,1-.078.374Z" transform="translate(-18.597 -176.267)" fill="#fff"/></g><g transform="translate(2.445 32.987)"><path d="M21.409,192.388a.221.221,0,0,1-.078-.016l-8.6-3.753a.194.194,0,0,1,.155-.357l8.6,3.753a.194.194,0,0,1-.078.372Z" transform="translate(-12.617 -188.247)" fill="#fff"/></g><g transform="translate(7.517 14.769)"><path d="M41.734,111.016a.205.205,0,0,1-.081-.017.194.194,0,0,1-.095-.258c.035-.078,3.042-6.661,4.4-9.936a9.256,9.256,0,0,1-2.687-.746l-4.12,9.435a.194.194,0,1,1-.357-.155l4.125-9.449a7.112,7.112,0,0,1-1.183-.756c-1.915-1.524-2.084-3.511-1.468-4.36.363-.5,1.126-.783,2.183-.085,1.8,1.19,1.132,4.564,1.1,4.707a.3.3,0,0,1-.012.039l-.116.266a8.949,8.949,0,0,0,2.689.721c.163-.4.293-.737.378-.979.743-2.119,1.312-3.175,2.737-3.833,1.985-.917,2.908-.107,3.212.285a2.336,2.336,0,0,1-.132,2.836,6.544,6.544,0,0,1-5.112,2.146c-.279,0-.56-.008-.837-.031-1.32,3.207-4.3,9.734-4.449,10.056A.189.189,0,0,1,41.734,111.016Zm4.785-10.558a6.437,6.437,0,0,0,5.488-1.97,1.968,1.968,0,0,0,.128-2.354c-.523-.673-1.524-.735-2.743-.171-1.188.549-1.733,1.324-2.534,3.608C46.778,99.8,46.662,100.1,46.518,100.458Zm-5.254-5.8a.8.8,0,0,0-.68.347c-.512.706-.308,2.474,1.394,3.829a6.58,6.58,0,0,0,1.1.7l.1-.233c.05-.268.582-3.282-.938-4.286A1.814,1.814,0,0,0,41.265,94.658Z" transform="translate(-38.777 -94.273)" fill="#080717"/></g></g><g transform="translate(1.712 9.584)"><path d="M11.9,43.772l.014,1.84L10.68,44.435a2.745,2.745,0,0,1-.834-1.722h0c-.054-.584.153-.884.853-1.314l3.712-2.1.167.872a1.809,1.809,0,0,1-.566,1.687Z" transform="translate(-9.643 -39.104)" fill="#ffc89e"/><path d="M11.1,44.992a.2.2,0,0,1-.134-.054L9.738,43.761a2.929,2.929,0,0,1-.894-1.844c-.068-.735.266-1.08.946-1.5l3.718-2.1a.193.193,0,0,1,.285.132l.167.872a2.016,2.016,0,0,1-.626,1.867l-2.053,1.855.014,1.753a.2.2,0,0,1-.116.18A.173.173,0,0,1,11.1,44.992Zm2.361-6.206L9.988,40.752c-.7.43-.8.684-.756,1.128a2.537,2.537,0,0,0,.774,1.6l.9.861-.01-1.382a.2.2,0,0,1,.064-.145L13.076,40.9a1.628,1.628,0,0,0,.5-1.506Z" transform="translate(-8.835 -38.29)" fill="#ff7e64"/><g transform="translate(0.021 2.851)"><path d="M12,58.026l.014,1.84-1.231-1.177a2.745,2.745,0,0,1-.834-1.722h0a1.262,1.262,0,0,1,.853-1.314l4.73-1.673.072,1.212a1.593,1.593,0,0,1-.855,1.506Z" transform="translate(-9.749 -53.789)" fill="#ffc89e"/><path d="M11.209,59.268a.2.2,0,0,1-.134-.054L9.844,58.037a2.926,2.926,0,0,1-.892-1.844,1.449,1.449,0,0,1,.985-1.516l4.728-1.671a.2.2,0,0,1,.173.021.2.2,0,0,1,.087.149L15,54.389a1.792,1.792,0,0,1-.96,1.69l-2.646,1.278.014,1.718a.2.2,0,0,1-.116.18A.285.285,0,0,1,11.209,59.268Zm3.342-5.812-4.488,1.588a1.067,1.067,0,0,0-.725,1.115,2.537,2.537,0,0,0,.774,1.6l.9.861L11,57.237a.2.2,0,0,1,.111-.176l2.751-1.328a1.4,1.4,0,0,0,.746-1.32Z" transform="translate(-8.946 -52.996)" fill="#ff7e64"/></g><g transform="translate(0.041 5.429)"><path d="M12.1,71.185l.014,1.84-1.231-1.177a2.745,2.745,0,0,1-.834-1.722h0a1.262,1.262,0,0,1,.853-1.314L15.229,67.3l.072,1.212a1.593,1.593,0,0,1-.855,1.506Z" transform="translate(-9.849 -67.105)" fill="#ffc89e"/><path d="M11.309,72.409a.2.2,0,0,1-.134-.054L9.944,71.178a2.926,2.926,0,0,1-.892-1.844,1.449,1.449,0,0,1,.985-1.516l4.327-1.512a.2.2,0,0,1,.171.021.193.193,0,0,1,.085.149l.072,1.212a1.792,1.792,0,0,1-.96,1.69l-2.243,1.115.014,1.72a.2.2,0,0,1-.116.18A.185.185,0,0,1,11.309,72.409Zm2.939-5.651-4.087,1.427A1.069,1.069,0,0,0,9.436,69.3a2.537,2.537,0,0,0,.774,1.6l.9.861-.01-1.382a.194.194,0,0,1,.107-.174l2.35-1.167a1.4,1.4,0,0,0,.748-1.322Z" transform="translate(-9.046 -66.296)" fill="#ff7e64"/></g><g transform="translate(0.059 7.975)"><path d="M12.188,84.071l.014,1.84-1.231-1.177a2.745,2.745,0,0,1-.834-1.722h0A1.262,1.262,0,0,1,10.99,81.7l3.757-1.268.072,1.212a1.593,1.593,0,0,1-.855,1.506Z" transform="translate(-9.939 -80.235)" fill="#ffc89e"/><path d="M11.4,85.3a.2.2,0,0,1-.134-.054l-1.231-1.177a2.926,2.926,0,0,1-.892-1.844,1.452,1.452,0,0,1,.985-1.516l3.757-1.268a.191.191,0,0,1,.171.023.193.193,0,0,1,.085.149l.072,1.212a1.792,1.792,0,0,1-.96,1.69l-1.671.869L11.6,85.1a.2.2,0,0,1-.116.18A.3.3,0,0,1,11.4,85.3Zm2.367-5.413-3.515,1.186a1.066,1.066,0,0,0-.723,1.113,2.537,2.537,0,0,0,.774,1.6l.9.861-.01-1.382a.2.2,0,0,1,.1-.174l1.776-.925a1.4,1.4,0,0,0,.75-1.324Z" transform="translate(-9.138 -79.426)" fill="#ff7e64"/></g></g><g transform="translate(38.412 33.894)"><path d="M209.773,175.123a.192.192,0,0,1-.19-.161,9.818,9.818,0,0,0-4.461-6.611l-6.892-4.3a.194.194,0,1,1,.205-.33l6.892,4.3a10.2,10.2,0,0,1,4.637,6.872.2.2,0,0,1-.157.225A.27.27,0,0,1,209.773,175.123Z" transform="translate(-198.139 -163.689)" fill="#d7e4f4"/></g><g transform="translate(33.41 40.213)"><path d="M176.083,202.944a.191.191,0,0,1-.169-.1l-3.548-6.275a.194.194,0,1,1,.337-.19l3.548,6.275a.194.194,0,0,1-.074.264A.184.184,0,0,1,176.083,202.944Z" transform="translate(-172.342 -196.282)" fill="#d7e4f4"/></g><g transform="translate(45.302 33.595)"><path d="M233.876,167.134a.211.211,0,0,1-.076-.016.2.2,0,0,1-.1-.254l1.972-4.6a.194.194,0,1,1,.357.151l-1.972,4.6A.191.191,0,0,1,233.876,167.134Z" transform="translate(-233.682 -162.143)" fill="#d7e4f4"/></g><g transform="translate(27.157 36.947)"><path d="M140.278,183.948a.267.267,0,0,1-.037,0,.194.194,0,0,1-.155-.227l.774-4.125a.194.194,0,1,1,.382.072l-.774,4.125A.2.2,0,0,1,140.278,183.948Z" transform="translate(-140.083 -179.433)" fill="#d7e4f4"/></g><g transform="translate(5.371 3.067)"><path d="M29.556,8.154a.192.192,0,0,1-.165-.091l-.541-.874-.9.237a.2.2,0,0,1-.207-.076.192.192,0,0,1,0-.221l.487-.708-.461-.936a.195.195,0,0,1,.244-.268l.915.353.62-.82a.194.194,0,0,1,.349.1l.083,1.072,1.122.155a.194.194,0,0,1,.033.376l-1.274.415-.112,1.109a.19.19,0,0,1-.149.169A.1.1,0,0,1,29.556,8.154Zm-.616-1.382a.192.192,0,0,1,.165.091l.318.512.068-.667a.194.194,0,0,1,.134-.165l.593-.194-.444-.062a.192.192,0,0,1-.167-.176l-.056-.719-.4.527a.2.2,0,0,1-.225.064l-.591-.227.293.593a.2.2,0,0,1-.014.2l-.256.37.531-.14A.477.477,0,0,1,28.939,6.772Z" transform="translate(-27.71 -4.673)" fill="#e2f864"/></g><g transform="translate(25.968 5.141)"><path d="M135.452,18.367a.2.2,0,0,1-.171-.1l-.436-.795-.795-.436a.195.195,0,0,1,0-.341l.795-.434.436-.8a.2.2,0,0,1,.339,0l.436.8.8.434a.195.195,0,0,1,0,.341l-.8.436-.436.795A.192.192,0,0,1,135.452,18.367Zm-.9-1.5.535.293a.187.187,0,0,1,.078.078l.293.535.293-.535a.187.187,0,0,1,.078-.078l.535-.293-.535-.293a.187.187,0,0,1-.078-.078l-.293-.535-.293.535a.187.187,0,0,1-.078.078Z" transform="translate(-133.95 -15.37)" fill="#e2f864"/></g><g transform="translate(20.775 15.072)"><g transform="translate(8.812 1.573)"><path d="M156.255,81.973l.332-5.438a.779.779,0,0,0-.787-.826h0a1.669,1.669,0,0,0-1.557,1.132l-.622,1.832Z" transform="translate(-153.426 -75.516)" fill="#ffc89e"/><path d="M155.447,81.361a.188.188,0,0,1-.151-.074l-2.635-3.3a.2.2,0,0,1-.033-.184l.622-1.83a1.87,1.87,0,0,1,1.739-1.264,1,1,0,0,1,.717.3.981.981,0,0,1,.268.731l-.331,5.438a.193.193,0,0,1-.136.173A.228.228,0,0,1,155.447,81.361Zm-2.417-3.532,2.255,2.823.3-4.934a.573.573,0,0,0-.161-.438.567.567,0,0,0-.43-.18,1.477,1.477,0,0,0-1.376,1Z" transform="translate(-152.618 -74.71)" fill="#ff7e64"/></g><g transform="translate(0 0)"><path d="M118.441,72.607l-4.472-4.823a.589.589,0,0,0-.9.039l-.217.281a1.675,1.675,0,0,0-.134,1.849l.9,1.586-.039.215-1.7-1.409a.866.866,0,0,0-1.223.114,1.5,1.5,0,0,0,.029,1.915.85.85,0,0,0-1.105.174,1.5,1.5,0,0,0,.017,1.931.85.85,0,0,0-1.105.174,1.5,1.5,0,0,0,.194,2.109l3.437,2.858L112,80.36a3.021,3.021,0,0,0,.64,2.472l8.156,9.906,2.262-.078a3.773,3.773,0,0,0,2.78-6.186l-.045-.052-6.434-7.52.2-.525A5.559,5.559,0,0,0,118.441,72.607Z" transform="translate(-107.962 -67.401)" fill="#ffc89e"/><path d="M119.993,92.123a.192.192,0,0,1-.149-.07l-8.156-9.906a3.215,3.215,0,0,1-.68-2.631l.116-.626-3.35-2.786a1.692,1.692,0,0,1-.219-2.383,1.028,1.028,0,0,1,.828-.372,1.683,1.683,0,0,1,.26-1.731,1.041,1.041,0,0,1,.8-.374h.027a1.687,1.687,0,0,1,.244-1.714,1.039,1.039,0,0,1,.713-.382,1.059,1.059,0,0,1,.785.24l1.183.985-.642-1.128a1.858,1.858,0,0,1,.147-2.065l.217-.281a.782.782,0,0,1,1.192-.052l4.472,4.823a5.72,5.72,0,0,1,1.153,5.969l-.159.417,6.405,7.485a3.9,3.9,0,0,1,.585,4.133,3.96,3.96,0,0,1-3.507,2.373L120,92.125A.007.007,0,0,0,119.993,92.123ZM108.355,73.737a.648.648,0,0,0-.5.235,1.3,1.3,0,0,0,.169,1.838l3.437,2.858a.19.19,0,0,1,.066.184l-.136.739a2.823,2.823,0,0,0,.6,2.313l8.1,9.831,2.167-.074a3.572,3.572,0,0,0,3.166-2.142,3.471,3.471,0,0,0-.527-3.726l-.043-.05-6.434-7.522a.189.189,0,0,1-.033-.2l.2-.525a5.331,5.331,0,0,0-1.076-5.566h0l-4.472-4.823a.4.4,0,0,0-.306-.126.394.394,0,0,0-.295.153l-.217.281a1.475,1.475,0,0,0-.118,1.634l.9,1.586a.182.182,0,0,1,.021.132l-.039.215a.193.193,0,0,1-.124.147.2.2,0,0,1-.19-.033l-1.7-1.411a.679.679,0,0,0-.5-.153.658.658,0,0,0-.45.24,1.3,1.3,0,0,0,.025,1.667.193.193,0,0,1-.25.289.659.659,0,0,0-.853.134,1.3,1.3,0,0,0,.016,1.681.193.193,0,0,1-.25.289A.687.687,0,0,0,108.355,73.737Z" transform="translate(-107.163 -66.596)" fill="#ff7e64"/><g transform="translate(2.714 4.958)"><path d="M125.49,96a.2.2,0,0,1-.124-.045l-4.135-3.439a.194.194,0,0,1,.248-.3l4.135,3.439a.2.2,0,0,1,.025.273A.192.192,0,0,1,125.49,96Z" transform="translate(-121.162 -92.172)" fill="#ff7e64"/></g><g transform="translate(3.718 2.74)"><path d="M130.93,84.774a.2.2,0,0,1-.124-.045l-4.395-3.654a.194.194,0,1,1,.248-.3l4.395,3.654a.194.194,0,0,1-.124.343Z" transform="translate(-126.342 -80.732)" fill="#ff7e64"/></g><g transform="translate(1.064 6.579)"><path d="M117.24,104.574a.2.2,0,0,1-.124-.045l-4.395-3.654a.194.194,0,1,1,.248-.3l4.395,3.654a.2.2,0,0,1,.025.273A.2.2,0,0,1,117.24,104.574Z" transform="translate(-112.652 -100.532)" fill="#ff7e64"/></g></g></g></svg>