<svg xmlns="http://www.w3.org/2000/svg" width="14" height="14" viewBox="0 0 14 14"><g><path d="M0,15.25a2.92,2.92,0,0,0,2.917,2.917h8.167A2.92,2.92,0,0,0,14,15.25V10H0Zm9.917-2.625a.875.875,0,1,1-.875.875A.875.875,0,0,1,9.917,12.625ZM7,12.625a.875.875,0,1,1-.875.875A.875.875,0,0,1,7,12.625Zm-2.917,0a.875.875,0,1,1-.875.875.875.875,0,0,1,.875-.875Z" transform="translate(0 -4.167)" fill="#fff"/><path d="M11.083,1.167H10.5V.583a.583.583,0,0,0-1.167,0v.583H4.667V.583A.583.583,0,1,0,3.5.583v.583H2.917A2.92,2.92,0,0,0,0,4.083v.583H14V4.083A2.92,2.92,0,0,0,11.083,1.167Z" fill="#fff"/></g></svg>