<svg xmlns="http://www.w3.org/2000/svg" width="58.34" height="52.151" viewBox="0 0 58.34 52.151"><g transform="translate(0 5.232)"><path d="M56.365,70.319H1.972A1.972,1.972,0,0,1,0,68.347V25.372A1.972,1.972,0,0,1,1.972,23.4h54.4a1.972,1.972,0,0,1,1.972,1.972V68.35A1.975,1.975,0,0,1,56.365,70.319Z" transform="translate(0 -23.4)" fill="#e3e3e3"/><ellipse cx="0.713" cy="0.713" rx="0.713" ry="0.713" transform="translate(1.806 1.424)" fill="#cccccd"/><path d="M20.226,30.483a.713.713,0,1,1-.713-.713A.714.714,0,0,1,20.226,30.483Z" transform="translate(-14.597 -28.346)" fill="#cccccd"/><path d="M30.956,30.483a.713.713,0,1,1-.713-.713A.714.714,0,0,1,30.956,30.483Z" transform="translate(-22.928 -28.346)" fill="#cccccd"/></g><g transform="translate(30.039)"><path d="M158.183,24.631H136.621A2.232,2.232,0,0,1,134.39,22.4V2.231A2.232,2.232,0,0,1,136.621,0h21.562a2.232,2.232,0,0,1,2.231,2.231V22.4A2.232,2.232,0,0,1,158.183,24.631Z" transform="translate(-134.383)" fill="#797979"/><path d="M160.384,2.989V2.231A2.232,2.232,0,0,0,158.153,0H136.591a2.232,2.232,0,0,0-2.231,2.231v.758Z" transform="translate(-134.36)" fill="#080717"/><path d="M148.63,60.1v-.2a1.236,1.236,0,0,1,1.236-1.236h15.849a1.236,1.236,0,0,1,1.236,1.236v.2a1.236,1.236,0,0,1-1.236,1.236H149.866A1.238,1.238,0,0,1,148.63,60.1Z" transform="translate(-145.44 -45.553)" fill="#fff"/><path d="M201.19,60.121v-.2a1.234,1.234,0,0,1,1.234-1.234H206.7a1.234,1.234,0,0,1,1.234,1.234v.2a1.234,1.234,0,0,1-1.234,1.234h-4.277A1.234,1.234,0,0,1,201.19,60.121Z" transform="translate(-186.249 -45.568)" fill="#080717"/><g transform="translate(10.36 8.878)"><rect width="3.984" height="0.816" fill="#fff"/></g><g transform="translate(7.704 6.835)"><rect width="9.296" height="0.816" fill="#fff"/></g><g transform="translate(16.587 13.978)"><rect width="2.759" height="0.816" fill="#fff"/></g><g transform="translate(1.833 1.017)"><rect width="0.762" height="0.816" fill="#fff"/></g><g transform="translate(3.45 1.017)"><rect width="0.762" height="0.816" fill="#fff"/></g><g transform="translate(5.068 1.017)"><rect width="0.762" height="0.816" fill="#fff"/></g></g><ellipse cx="2.175" cy="2.175" rx="2.175" ry="2.175" transform="translate(27.15 43.988) rotate(-76.714)" fill="#080717"/><ellipse cx="2.175" cy="2.175" rx="2.175" ry="2.175" transform="translate(32.351 40.006)" fill="#080717"/><path d="M120.627,83.83l-.3-5.165a.464.464,0,0,0-.566-.425l-.273.063a1.315,1.315,0,0,0-1.006,1.058l-.246,1.413-.132.11-.324-1.7a.68.68,0,0,0-.8-.541,1.177,1.177,0,0,0-.935,1.176.67.67,0,0,0-.758-.447,1.178,1.178,0,0,0-.955,1.18.67.67,0,0,0-.758-.447,1.176,1.176,0,0,0-.937,1.377l.657,3.454-.452.38a2.38,2.38,0,0,0-.847,1.82V97.226l-4.659,6.244-3.866-.3L97.9,103.9a4.451,4.451,0,0,0-3.642,3l-1.994,5.983h19.827v-3.866l4.762-8.064a9.613,9.613,0,0,0,1.333-5.068l-.148-7.785.385-.219A4.359,4.359,0,0,0,120.627,83.83Z" transform="translate(-71.633 -60.739)" fill="#ffc89e"/><path d="M109.575,179.369l-.821-.063-.85,1.482a2.232,2.232,0,0,1-4.049-.389l-.355-1.04-3.358.44a4.451,4.451,0,0,0-3.642,3l-1.35,4.051h3.273l.1,1.932h15.813v-3.866l2.068-3.5-4.3-5.44Z" transform="translate(-73.877 -136.635)" fill="#e2f864"/><ellipse cx="2.175" cy="2.175" rx="2.175" ry="2.175" transform="translate(31.757 37.739)" fill="#080717"/><g transform="translate(44.199 19.049)"><path d="M198.707,89.806a.222.222,0,0,1-.219-.181l-.791-4.156a.224.224,0,0,1,.44-.083l.791,4.156a.224.224,0,0,1-.179.262Z" transform="translate(-197.693 -85.203)" fill="#ff7e64"/></g><g transform="translate(45.921 18.202)"><path d="M206.457,86.277a.222.222,0,0,1-.219-.181l-.841-4.418a.224.224,0,0,1,.44-.083l.841,4.418a.224.224,0,0,1-.179.262A.271.271,0,0,1,206.457,86.277Z" transform="translate(-205.393 -81.413)" fill="#ff7e64"/></g><g transform="translate(42.388 19.206)"><path d="M190.657,90.767a.222.222,0,0,1-.219-.181l-.841-4.418a.224.224,0,0,1,.44-.083l.841,4.418a.224.224,0,0,1-.179.262A.258.258,0,0,1,190.657,90.767Z" transform="translate(-189.593 -85.903)" fill="#ff7e64"/></g><path d="M135.689,165.662a.769.769,0,0,0-.809-.438,1.932,1.932,0,0,0-.116-.519,3.067,3.067,0,0,0-5.6,2.113,2.1,2.1,0,0,0,1.109,1.151v1.487a1.343,1.343,0,0,0,1.341,1.341h1.035a1.342,1.342,0,0,0,1.341-1.341v-2.18a3.134,3.134,0,0,0,.467-.546,1.068,1.068,0,0,0,.626-.042A.853.853,0,0,0,135.689,165.662Z" transform="translate(-100.188 -126.775)" fill="#ffc89e"/><path d="M147.376,165.308a.964.964,0,0,0-.436-.069,1.931,1.931,0,0,0-.116-.519,2.4,2.4,0,0,0-2.254-1.42A2.809,2.809,0,0,0,147.376,165.308Z" transform="translate(-112.248 -126.79)" fill="#080717"/><g transform="translate(29.861 40.859)"><path d="M134.3,183.391a1.819,1.819,0,0,1-.592-.092.224.224,0,0,1,.143-.425,2.257,2.257,0,0,0,1.33-.1.223.223,0,0,1,.168.414A2.955,2.955,0,0,1,134.3,183.391Z" transform="translate(-133.56 -182.756)" fill="#ff7e64"/></g><g transform="translate(30.38 37.108)"><path d="M136.518,167.353a.229.229,0,0,1-.165-.072l-.409-.447a.222.222,0,0,1-.058-.177.218.218,0,0,1,.1-.159l.706-.483a.224.224,0,0,1,.253.369l-.494.338.235.257a.223.223,0,0,1-.013.315A.225.225,0,0,1,136.518,167.353Z" transform="translate(-135.884 -165.977)" fill="#ff7e64"/></g><g transform="translate(30.716 38.634)"><path d="M137.949,173.546a1.81,1.81,0,0,1-.4-.045.223.223,0,1,1,.114-.431c.009,0,.577.141.85-.188a.224.224,0,0,1,.344.286A1.156,1.156,0,0,1,137.949,173.546Z" transform="translate(-137.387 -172.802)" fill="#ff7e64"/></g><g transform="translate(31.719 37.147)"><path d="M142.469,166.858a.225.225,0,0,1-.2-.123.717.717,0,0,0-.25-.15.224.224,0,1,1,.159-.418.965.965,0,0,1,.494.369.222.222,0,0,1-.1.3A.273.273,0,0,1,142.469,166.858Z" transform="translate(-141.873 -166.153)" fill="#080717"/></g><g transform="translate(29.889 36.876)"><path d="M134.357,165.475a.211.211,0,0,1-.141-.051.7.7,0,0,0-.291-.036.224.224,0,1,1-.027-.447.959.959,0,0,1,.6.136.224.224,0,0,1,.031.315A.231.231,0,0,1,134.357,165.475Z" transform="translate(-133.688 -164.938)" fill="#080717"/></g><g transform="translate(24.47 45.187)"><path d="M109.674,209.074a.224.224,0,0,1-.224-.224v-6.517a.224.224,0,1,1,.447,0v6.517A.224.224,0,0,1,109.674,209.074Z" transform="translate(-109.45 -202.11)" fill="#fff"/></g><g transform="translate(3.951 17.479)"><path d="M25.477,78.627H17.894a.224.224,0,1,1,0-.447h7.584a.224.224,0,1,1,0,.447Z" transform="translate(-17.67 -78.18)" fill="#797979"/></g><g transform="translate(3.951 19.86)"><path d="M25.477,89.277H17.894a.224.224,0,1,1,0-.447h7.584a.224.224,0,1,1,0,.447Z" transform="translate(-17.67 -88.83)" fill="#797979"/></g><g transform="translate(3.951 22.239)"><path d="M25.477,99.917H17.894a.224.224,0,1,1,0-.447h7.584a.224.224,0,1,1,0,.447Z" transform="translate(-17.67 -99.47)" fill="#797979"/></g><g transform="translate(3.951 24.618)"><path d="M25.477,110.557H17.894a.224.224,0,1,1,0-.447h7.584a.224.224,0,1,1,0,.447Z" transform="translate(-17.67 -110.11)" fill="#797979"/></g><g transform="translate(15.4 14.208)"><path d="M69.1,94.926a.224.224,0,0,1-.224-.224V63.774a.224.224,0,0,1,.447,0V94.7A.224.224,0,0,1,69.1,94.926Z" transform="translate(-68.88 -63.55)" fill="#797979"/></g></svg>