<svg xmlns="http://www.w3.org/2000/svg" xmlns:xlink="http://www.w3.org/1999/xlink" width="112" height="148" viewBox="0 0 112 148"><defs><clipPath id="a"><rect width="72.804" height="36.313" transform="translate(0 0)" fill="#cccccd"/></clipPath></defs><g transform="translate(-74.487 -27)"><g transform="translate(74.146 26.962)"><g transform="translate(0.342 0.038)" fill="#f7f7f7" stroke="#e3e3e3" stroke-width="1"><rect width="112" height="148" rx="10" stroke="none"/><rect x="0.5" y="0.5" width="111" height="147" rx="9.5" fill="none"/></g><g transform="translate(10.785 40.443)"><g transform="translate(-0.443 -0.405)" fill="#fff" stroke="#cccccd" stroke-width="1"><rect width="89" height="61" stroke="none"/><rect x="0.5" y="0.5" width="88" height="60" fill="none"/></g></g></g><g transform="translate(93.689 78.879)"><g transform="translate(0 0)" clip-path="url(#a)"><path d="M71.74,1553.928H1.065a1.065,1.065,0,0,1,0-2.129H71.74a1.065,1.065,0,0,1,0,2.129" transform="translate(0 -1517.615)" fill="#cccccd" fill-rule="evenodd"/><path d="M235.493,263.541a13.5,13.5,0,0,1-4.2-26.318,1.153,1.153,0,0,1,.769.059,1.3,1.3,0,0,1,.532.591l3.726,11.474,10.35,6.151a1.052,1.052,0,0,1,.355,1.419,13.35,13.35,0,0,1-7.452,5.973,14,14,0,0,1-4.081.651m-4.554-23.953a11.382,11.382,0,0,0,7.984,21.291,11.31,11.31,0,0,0,5.737-4.14l-9.759-5.8a1.181,1.181,0,0,1-.473-.591Z" transform="translate(-217.1 -231.959)" fill="#cccccd" fill-rule="evenodd"/><path d="M1015.085,338.551a1.73,1.73,0,0,1-.532-.118l-10.646-6.328a.923.923,0,0,1-.473-.769,1.029,1.029,0,0,1,.3-.887l8.931-8.635a1.035,1.035,0,0,1,1.479,0,12.818,12.818,0,0,1,3.134,5.2,13.315,13.315,0,0,1-1.242,11,1.136,1.136,0,0,1-.946.532m-8.99-7.57,8.576,5.086a11.461,11.461,0,0,0,.591-8.4,10.708,10.708,0,0,0-1.952-3.608Z" transform="translate(-981.314 -314.421)" fill="#cccccd" fill-rule="evenodd"/><path d="M727.387,86.112a.355.355,0,0,1-.236-.059.881.881,0,0,1-.71-.71L722.6,73.574a1.038,1.038,0,0,1,.651-1.3,13.394,13.394,0,0,1,13.839,3.43,1.091,1.091,0,0,1,.3.71.98.98,0,0,1-.3.71l-8.99,8.694a1.091,1.091,0,0,1-.71.3M724.9,73.988l2.957,9.167,6.979-6.742a11.273,11.273,0,0,0-9.936-2.425" transform="translate(-706.628 -70.026)" fill="#cccccd" fill-rule="evenodd"/><path d="M1758.974,1312.3h-28.921a1.065,1.065,0,0,1,0-2.129h28.921a1.06,1.06,0,0,1,1.064,1.064,1.1,1.1,0,0,1-1.064,1.065" transform="translate(-1690.9 -1281.307)" fill="#cccccd" fill-rule="evenodd"/><path d="M1832.915,879.069a1.06,1.06,0,0,1-1.064-1.064v-8.753h-4.081v8.753a1.065,1.065,0,1,1-2.129,0v-9.758a1.06,1.06,0,0,1,1.065-1.065h6.151a1.06,1.06,0,0,1,1.065,1.065v9.818a.962.962,0,0,1-1.006,1.005" transform="translate(-1785.424 -848.079)" fill="#cccccd" fill-rule="evenodd"/><path d="M2251.737,750.415a1.06,1.06,0,0,1-1.064-1.064V737.7h-4.081V749.35a1.065,1.065,0,1,1-2.129,0V736.694a1.06,1.06,0,0,1,1.064-1.065h6.151a1.06,1.06,0,0,1,1.064,1.064v12.716a1.036,1.036,0,0,1-1.005,1.005" transform="translate(-2195.02 -719.424)" fill="#cccccd" fill-rule="evenodd"/><path d="M2667.818,527.238a1.06,1.06,0,0,1-1.064-1.065V509.495h-4.022v16.678a1.064,1.064,0,1,1-2.129,0V508.49a1.06,1.06,0,0,1,1.064-1.065h6.092a1.06,1.06,0,0,1,1.064,1.065v17.684a.978.978,0,0,1-1.005,1.064" transform="translate(-2601.993 -496.247)" fill="#cccccd" fill-rule="evenodd"/><path d="M1859.066,2.131h-24.308a1.065,1.065,0,1,1,0-2.129h24.308a1.065,1.065,0,0,1,0,2.129" transform="translate(-1793.3 -0.002)" fill="#cccccd" fill-rule="evenodd"/><path d="M1859.066,211.545h-24.308a1.065,1.065,0,1,1,0-2.129h24.308a1.065,1.065,0,0,1,0,2.129" transform="translate(-1793.3 -204.803)" fill="#cccccd" fill-rule="evenodd"/></g></g></g></svg>