<svg xmlns="http://www.w3.org/2000/svg" width="11.668" height="13.997" viewBox="0 0 11.668 13.997"><path d="M21483.418,5451a2.916,2.916,0,0,1-2.918-2.913v-3.5h11.668v3.5a2.916,2.916,0,0,1-2.918,2.913Zm1.748-3.5a.588.588,0,0,0,.582.588h1.166a.585.585,0,0,0,0-1.17h-1.166A.587.587,0,0,0,21485.166,5447.5Zm-4.666-4.083v-3.5a2.916,2.916,0,0,1,2.918-2.913h5.832a2.916,2.916,0,0,1,2.918,2.913v3.5Zm4.666-2.913a.586.586,0,0,0,.582.583h1.166a.585.585,0,0,0,0-1.17h-1.166A.588.588,0,0,0,21485.166,5440.5Z" transform="translate(-21480.5 -5437.002)"/></svg>