<svg xmlns="http://www.w3.org/2000/svg" xmlns:xlink="http://www.w3.org/1999/xlink" width="101.834" height="47.942" viewBox="0 0 101.834 47.942">
  <defs>
    <clipPath id="clip-path">
      <rect id="Rectangle_11417" data-name="Rectangle 11417" width="101.834" height="47.942"/>
    </clipPath>
  </defs>
  <g id="Group_52210" data-name="Group 52210" transform="translate(0 0)">
    <g id="Group_34108" data-name="Group 34108" transform="translate(0 0)" clip-path="url(#clip-path)">
      <path id="Path_3009" data-name="Path 3009" d="M24.283,17.43a9.317,9.317,0,0,0,1.438-2.949,12.851,12.851,0,0,0,.1-6.781,9.413,9.413,0,0,0-1.35-3,7.356,7.356,0,0,0-2.322-2.161,6.572,6.572,0,0,0-3.283-.854H10.926l.219.366a5.4,5.4,0,0,1,.762,2.821V17.068a5.535,5.535,0,0,1-.763,2.847l-.214.364H18.7a6.509,6.509,0,0,0,3.194-.768,7.379,7.379,0,0,0,2.385-2.083M15.094,2.63h2.849a3.43,3.43,0,0,1,2.112.688A5.556,5.556,0,0,1,21.6,5.182a10.289,10.289,0,0,1,.944,2.689,15.157,15.157,0,0,1,0,6.2,10.286,10.286,0,0,1-.943,2.689,5.547,5.547,0,0,1-1.55,1.864,3.426,3.426,0,0,1-2.112.688H15.094Z" transform="translate(-0.374 -0.057)"/>
      <path id="Path_3010" data-name="Path 3010" d="M30.845,4.371a1.974,1.974,0,0,0,2-2A1.977,1.977,0,0,0,32.271.917,1.944,1.944,0,0,0,30.845.339a1.974,1.974,0,0,0-2.029,2.028,1.943,1.943,0,0,0,.578,1.426,1.973,1.973,0,0,0,1.452.579" transform="translate(-0.985 -0.011)"/>
      <path id="Path_3011" data-name="Path 3011" d="M28.443,20.075l-.214.364h5.143l-.214-.364a5.527,5.527,0,0,1-.764-2.847V6.326L28.3,8.186l.141.234a5.015,5.015,0,0,1,.577,1.37,5.98,5.98,0,0,1,.186,1.474v5.964a5.541,5.541,0,0,1-.764,2.847" transform="translate(-0.965 -0.216)"/>
      <path id="Path_3012" data-name="Path 3012" d="M36.392,18.756A5.136,5.136,0,0,0,38.254,20.2a5.9,5.9,0,0,0,2.479.505A4.506,4.506,0,0,0,43.5,19.92a4.345,4.345,0,0,0,1.074-1.184V20.2a5.232,5.232,0,0,1-.935,3.383,3.041,3.041,0,0,1-2.494,1.109,2.866,2.866,0,0,1-1.293-.3,3.6,3.6,0,0,1-1.063-.8,3.653,3.653,0,0,1-.7-1.134,3.5,3.5,0,0,1-.248-1.287v-.578L35.2,23.194l.179.172a7.829,7.829,0,0,0,2.728,1.78,8.909,8.909,0,0,0,3.04.51,9.519,9.519,0,0,0,2.576-.336,6.348,6.348,0,0,0,2.1-1,4.948,4.948,0,0,0,1.421-1.65,4.786,4.786,0,0,0,.523-2.274V6.348L44.231,7.972A4.174,4.174,0,0,0,42.88,6.918a4.845,4.845,0,0,0-2.147-.435,5.553,5.553,0,0,0-2.486.546,5.388,5.388,0,0,0-1.857,1.5,6.7,6.7,0,0,0-1.14,2.254,9.873,9.873,0,0,0-.384,2.821,10.275,10.275,0,0,0,.384,2.905,6.411,6.411,0,0,0,1.142,2.245m3.414-11.02a2.714,2.714,0,0,1,1.265-.287,3.25,3.25,0,0,1,1.36.293,2.72,2.72,0,0,1,1.1.968,5.638,5.638,0,0,1,.761,1.886,13.5,13.5,0,0,1,.283,3.01,13.5,13.5,0,0,1-.283,3.01,5.624,5.624,0,0,1-.761,1.887,2.637,2.637,0,0,1-1.093.954,3.254,3.254,0,0,1-2.632.006,2.214,2.214,0,0,1-.912-.941,6.169,6.169,0,0,1-.6-1.892,17.905,17.905,0,0,1-.213-3.025,17.885,17.885,0,0,1,.213-3.024,6.151,6.151,0,0,1,.6-1.892,2.281,2.281,0,0,1,.915-.954" transform="translate(-1.192 -0.217)"/>
      <path id="Path_3013" data-name="Path 3013" d="M54.319,17.227V6.325l-4.09,1.861.141.233a5.045,5.045,0,0,1,.577,1.37,6.031,6.031,0,0,1,.185,1.474v5.964a5.538,5.538,0,0,1-.763,2.847l-.214.364H55.3l-.214-.364a5.524,5.524,0,0,1-.764-2.847" transform="translate(-1.715 -0.216)"/>
      <path id="Path_3014" data-name="Path 3014" d="M52.769,4.371a1.974,1.974,0,0,0,2-2A1.977,1.977,0,0,0,54.2.917,1.946,1.946,0,0,0,52.769.339a1.974,1.974,0,0,0-2.028,2.028,1.943,1.943,0,0,0,.578,1.426,1.972,1.972,0,0,0,1.451.579" transform="translate(-1.735 -0.011)"/>
      <path id="Path_3015" data-name="Path 3015" d="M58.416,7.781v9.93a2.775,2.775,0,0,0,.359,1.426,2.746,2.746,0,0,0,.939.964,3.377,3.377,0,0,0,1.313.456,3.68,3.68,0,0,0,.518.036,4.21,4.21,0,0,0,1-.124,5.058,5.058,0,0,0,1.548-.7,5.692,5.692,0,0,0,1.4-1.336l.119-.157-.462-.527-.183.168a3.743,3.743,0,0,1-1.19.761,2.176,2.176,0,0,1-1.1.155,1.18,1.18,0,0,1-.767-.444,1.745,1.745,0,0,1-.308-1.116V7.753a6.025,6.025,0,0,1,1.958.7l.148.083,2.213-1.91H61.6V3.522L58.416,4.775V6.629H56.291V8.671l.365-.217a5.357,5.357,0,0,1,1.76-.672" transform="translate(-1.925 -0.12)"/>
      <path id="Path_3016" data-name="Path 3016" d="M73.948,11.1a15.063,15.063,0,0,1-1.627.8c-.612.257-1.236.524-1.873.8a10.181,10.181,0,0,0-1.794.989,5.226,5.226,0,0,0-1.367,1.38,3.509,3.509,0,0,0-.548,1.981A3.433,3.433,0,0,0,67.8,19.794a4.229,4.229,0,0,0,2.824.89,5.33,5.33,0,0,0,1.808-.28,4.354,4.354,0,0,0,1.354-.767,4.593,4.593,0,0,0,.968-1.134c.05-.081.1-.165.145-.249v2.189h4.165l-.214-.364a5.477,5.477,0,0,1-.764-2.822V12.38a7.359,7.359,0,0,0-.362-2.348,5.524,5.524,0,0,0-1.061-1.879,4.729,4.729,0,0,0-1.754-1.247,6.156,6.156,0,0,0-2.4-.441,6.341,6.341,0,0,0-2.973.666,7.567,7.567,0,0,0-2.132,1.635l-.155.172,2.652,2.59v-.574a6.338,6.338,0,0,1,.14-1.325,3.423,3.423,0,0,1,.45-1.128,2.457,2.457,0,0,1,.792-.781,2.272,2.272,0,0,1,1.2-.29,2.327,2.327,0,0,1,.886.174,2.146,2.146,0,0,1,.749.522,2.8,2.8,0,0,1,.543.89,3.777,3.777,0,0,1,.235,1.225,2.666,2.666,0,0,1-.951.856m.954,3.2a6.8,6.8,0,0,1-1.029,3.649,2.62,2.62,0,0,1-2.208,1.216,1.465,1.465,0,0,1-1.255-.615,2.662,2.662,0,0,1-.484-1.63,3.907,3.907,0,0,1,.293-1.592,4.007,4.007,0,0,1,.752-1.139,5.136,5.136,0,0,1,1.048-.841c.408-.247.809-.479,1.21-.694s.8-.45,1.159-.671A3.948,3.948,0,0,0,74.9,11.6Z" transform="translate(-2.282 -0.221)"/>
      <path id="Path_3017" data-name="Path 3017" d="M10.455,40.7a4.619,4.619,0,0,1-1.033.792,5.435,5.435,0,0,1-1.386.53,8.708,8.708,0,0,1-2.031.2H4.169V27.876a5.4,5.4,0,0,1,.762-2.821l.219-.366H0l.219.366a5.4,5.4,0,0,1,.763,2.821V40.069a5.532,5.532,0,0,1-.764,2.847L0,43.281H10.718l1.474-4.453-.764.837q-.5.553-.973,1.032" transform="translate(0 -0.844)"/>
      <path id="Path_3018" data-name="Path 3018" d="M17.371,26.793a1.946,1.946,0,0,0,.579-1.426,1.981,1.981,0,0,0-.579-1.451,1.948,1.948,0,0,0-1.426-.577,1.973,1.973,0,0,0-2.028,2.027,1.949,1.949,0,0,0,.578,1.426,1.976,1.976,0,0,0,1.451.579,1.944,1.944,0,0,0,1.426-.579" transform="translate(-0.476 -0.798)"/>
      <path id="Path_3019" data-name="Path 3019" d="M17.494,40.227v-10.9L13.4,31.186l.141.233a5.045,5.045,0,0,1,.577,1.37,6.031,6.031,0,0,1,.185,1.474v5.964a5.538,5.538,0,0,1-.763,2.847l-.214.364h5.143l-.214-.364a5.524,5.524,0,0,1-.764-2.847" transform="translate(-0.456 -1.002)"/>
      <path id="Path_3020" data-name="Path 3020" d="M24.734,26.966a3.421,3.421,0,0,1,.455-1.9,1.4,1.4,0,0,1,1.259-.639,1.158,1.158,0,0,1,.795.266,2.143,2.143,0,0,1,.541.771,4.227,4.227,0,0,1,.3,1.143,10.879,10.879,0,0,1,.083,1.345v.574l2.652-2.589-.155-.173a8.682,8.682,0,0,0-1.925-1.614,4.865,4.865,0,0,0-2.577-.664,5.051,5.051,0,0,0-1.964.358,4.425,4.425,0,0,0-1.442.945,4,4,0,0,0-.9,1.373,4.348,4.348,0,0,0-.307,1.6V29.5H19.591v2.037l.362-.211a5.3,5.3,0,0,1,.9-.415,6.572,6.572,0,0,1,.693-.2v9.313a5.539,5.539,0,0,1-.763,2.848l-.214.364h5.142l-.214-.364a5.538,5.538,0,0,1-.763-2.848V30.616a5.741,5.741,0,0,1,2.125.713l.149.084L29.221,29.5H24.734Z" transform="translate(-0.67 -0.803)"/>
      <path id="Path_3021" data-name="Path 3021" d="M41.657,32.133a5.548,5.548,0,0,0-1.828-1.894,5.639,5.639,0,0,0-3.1-.775,6.441,6.441,0,0,0-2.609.54,6.784,6.784,0,0,0-2.152,1.488,6.915,6.915,0,0,0-1.452,2.251,7.569,7.569,0,0,0-.524,2.843,7.852,7.852,0,0,0,.524,2.926,6.607,6.607,0,0,0,1.454,2.243,6.535,6.535,0,0,0,2.157,1.428,6.854,6.854,0,0,0,2.6.5,5.484,5.484,0,0,0,3.62-1.215,7.315,7.315,0,0,0,2.161-3.244l.086-.244-.718-.2-.083.191a6.734,6.734,0,0,1-1.083,1.771,5.114,5.114,0,0,1-1.279,1.073,4.28,4.28,0,0,1-1.36.5,6.322,6.322,0,0,1-1.323.105,4.1,4.1,0,0,1-1.128-.3,2.969,2.969,0,0,1-1.138-.862,5.231,5.231,0,0,1-.908-1.754,9.229,9.229,0,0,1-.372-2.689h9.426l.013-.228a10.135,10.135,0,0,0-.148-2.129,6.943,6.943,0,0,0-.838-2.339M33.211,35.79a11.157,11.157,0,0,1,.345-2.482,5.179,5.179,0,0,1,.781-1.719,2.719,2.719,0,0,1,1.075-.89,3.264,3.264,0,0,1,1.315-.269,2.343,2.343,0,0,1,2.19,1.37,8.866,8.866,0,0,1,.777,3.99Z" transform="translate(-1.026 -1.007)"/>
      <path id="Path_3022" data-name="Path 3022" d="M53.175,35.767a13.861,13.861,0,0,0-1.7-1.143c-.592-.339-1.148-.678-1.654-1.008a8.581,8.581,0,0,1-1.245-.961,1.213,1.213,0,0,1-.444-.876,1.39,1.39,0,0,1,.394-.982,1.639,1.639,0,0,1,1.248-.418,2.278,2.278,0,0,1,1.192.293,2.515,2.515,0,0,1,.816.782,3.654,3.654,0,0,1,.486,1.133,5.4,5.4,0,0,1,.162,1.317v.653l2.3-2.688-.148-.157a7.914,7.914,0,0,0-2.244-1.742,5.8,5.8,0,0,0-2.569-.556,7.574,7.574,0,0,0-2.3.3,4.333,4.333,0,0,0-1.508.8,2.854,2.854,0,0,0-.816,1.109,3.292,3.292,0,0,0-.233,1.2,2.892,2.892,0,0,0,.566,1.762A6.338,6.338,0,0,0,46.835,35.9a14.623,14.623,0,0,0,1.693,1.068c.583.315,1.138.644,1.649.979a6.618,6.618,0,0,1,1.246,1.036,1.639,1.639,0,0,1,.456,1.152,2.591,2.591,0,0,1-.644,1.873,2.488,2.488,0,0,1-1.867.663,2.569,2.569,0,0,1-1.237-.3,2.827,2.827,0,0,1-.924-.79,3.865,3.865,0,0,1-.579-1.136,4.266,4.266,0,0,1-.206-1.3v-.579l-2.64,2.611.179.171a10.82,10.82,0,0,0,1.26,1.05,7.01,7.01,0,0,0,1.275.713,6.4,6.4,0,0,0,1.356.4,8.665,8.665,0,0,0,1.515.124,7.2,7.2,0,0,0,2.361-.362,5.609,5.609,0,0,0,1.791-1,4.308,4.308,0,0,0,1.15-1.508,4.461,4.461,0,0,0,.4-1.863,2.962,2.962,0,0,0-.565-1.758,6.931,6.931,0,0,0-1.326-1.377" transform="translate(-1.497 -1.005)"/>
      <path id="Path_3023" data-name="Path 3023" d="M76.472,29.7a4.59,4.59,0,0,1,.022,1.376,5.927,5.927,0,0,1-.394,1.484l-2.929,7.4-2.682-7.4a5.4,5.4,0,0,1-.335-1.479,4.771,4.771,0,0,1,.08-1.379l.062-.293h-5.15l.2.217H61.4V26.522l-3.186,1.253v1.854H56.09v2.042l.365-.217a5.354,5.354,0,0,1,1.761-.672v9.93a2.784,2.784,0,0,0,.358,1.426,2.754,2.754,0,0,0,.939.964,3.405,3.405,0,0,0,1.313.457,3.855,3.855,0,0,0,.519.035,4.217,4.217,0,0,0,1-.124,5.053,5.053,0,0,0,1.547-.7,5.678,5.678,0,0,0,1.4-1.336l.119-.157-.463-.527-.182.168a3.753,3.753,0,0,1-1.19.761,2.189,2.189,0,0,1-1.1.155,1.181,1.181,0,0,1-.766-.444,1.745,1.745,0,0,1-.309-1.115V30.753a6.017,6.017,0,0,1,1.958.7l.149.083,2.006-1.732.009.01a9.471,9.471,0,0,1,1.083,1.413,8.359,8.359,0,0,1,.75,1.5l3.8,10.542h.7l-.447,1.1A3.685,3.685,0,0,1,70.4,45.923a2.5,2.5,0,0,1-2.7.239l-.523-.209,1.164,2.9H68.5a2.938,2.938,0,0,0,2.252-.946,4.737,4.737,0,0,0,.739-1.068,13.878,13.878,0,0,0,.614-1.375l5.022-12.725a8.64,8.64,0,0,1,1.927-2.912l.4-.41H76.421Z" transform="translate(-1.918 -0.907)"/>
      <path id="Path_3024" data-name="Path 3024" d="M98.931,32.133A5.548,5.548,0,0,0,97.1,30.239a5.639,5.639,0,0,0-3.1-.775,6.441,6.441,0,0,0-2.609.54,6.784,6.784,0,0,0-2.152,1.488,6.915,6.915,0,0,0-1.452,2.251,7.569,7.569,0,0,0-.524,2.843,7.852,7.852,0,0,0,.524,2.926,6.607,6.607,0,0,0,1.454,2.243A6.535,6.535,0,0,0,91.4,43.184a6.854,6.854,0,0,0,2.6.5,5.484,5.484,0,0,0,3.62-1.215,7.315,7.315,0,0,0,2.161-3.244l.086-.244-.718-.2-.083.191a6.733,6.733,0,0,1-1.083,1.771,5.114,5.114,0,0,1-1.279,1.073,4.28,4.28,0,0,1-1.36.5,6.327,6.327,0,0,1-1.323.105,4.1,4.1,0,0,1-1.128-.3,2.969,2.969,0,0,1-1.138-.862,5.231,5.231,0,0,1-.908-1.754,9.23,9.23,0,0,1-.372-2.689H99.9l.013-.228a10.134,10.134,0,0,0-.148-2.129,6.943,6.943,0,0,0-.838-2.339M90.485,35.79a11.158,11.158,0,0,1,.345-2.482,5.179,5.179,0,0,1,.781-1.719,2.719,2.719,0,0,1,1.075-.89A3.264,3.264,0,0,1,94,30.43a2.343,2.343,0,0,1,2.19,1.37,8.866,8.866,0,0,1,.777,3.99Z" transform="translate(-2.984 -1.007)"/>
      <path id="Path_3025" data-name="Path 3025" d="M104.8,40.806a1.756,1.756,0,1,0,.518,1.245,1.709,1.709,0,0,0-.518-1.245" transform="translate(-3.481 -1.377)"/>
      <path id="Path_3026" data-name="Path 3026" d="M84.793,17.011V0L80.7,1.86l.141.234a5.038,5.038,0,0,1,.577,1.371,6.017,6.017,0,0,1,.185,1.473V17.011c0,1.029-.257,24.2-.763,25.061l-.214.364h5.143l-.214-.364c-.507-.859-.764-24.031-.764-25.061" transform="translate(-2.757 0)"/>
    </g>
  </g>
</svg>
