<svg xmlns="http://www.w3.org/2000/svg" width="11.667" height="14" viewBox="0 0 11.667 14"><path d="M9,4.083V.268a4.07,4.07,0,0,1,1.438.928L12.47,3.229A4.057,4.057,0,0,1,13.4,4.667H9.583A.583.583,0,0,1,9,4.083Zm4.667,2.033v4.967A2.92,2.92,0,0,1,10.75,14H4.917A2.92,2.92,0,0,1,2,11.083V2.917A2.92,2.92,0,0,1,4.917,0H7.55c.1,0,.189.008.283.014V4.083a1.75,1.75,0,0,0,1.75,1.75h4.069c.006.094.014.188.014.283ZM9,11.083a.583.583,0,0,0-.583-.583H5.5a.583.583,0,1,0,0,1.167H8.417A.583.583,0,0,0,9,11.083ZM10.75,8.75a.583.583,0,0,0-.583-.583H5.5a.583.583,0,1,0,0,1.167h4.667A.583.583,0,0,0,10.75,8.75Z" transform="translate(-2)"/></svg>