<svg xmlns="http://www.w3.org/2000/svg" width="10.257" height="10.257" viewBox="0 0 10.257 10.257"><path d="M13.128,15.612a.471.471,0,0,1-.176-.032.488.488,0,0,1-.16-.112l-2.42-2.42a.443.443,0,0,1-.136-.345.5.5,0,0,1,.152-.345.484.484,0,0,1,.689,0l1.571,1.587V8.481a.481.481,0,1,1,.962,0v5.465L15.2,12.359a.487.487,0,1,1,.689.689l-2.42,2.42a.488.488,0,0,1-.16.112.471.471,0,0,1-.176.032ZM8.962,18.257A.986.986,0,0,1,8,17.3V15.484a.481.481,0,1,1,.962,0V17.3H17.3V15.484a.481.481,0,1,1,.962,0V17.3a.986.986,0,0,1-.962.962Z" transform="translate(-8 -8)"/></svg>