<svg xmlns="http://www.w3.org/2000/svg" width="112" height="148" viewBox="0 0 112 148"><g transform="translate(0.145 -0.038)"><g transform="translate(-0.145 0.038)" fill="#f7f7f7" stroke="#e3e3e3" stroke-width="1"><rect width="112" height="148" rx="10" stroke="none"/><rect x="0.5" y="0.5" width="111" height="147" rx="9.5" fill="none"/></g><g transform="translate(12.133 9.436)"><g transform="translate(-0.279 -0.398)" fill="#fff" stroke="#cccccd" stroke-width="1"><rect width="87" height="10" stroke="none"/><rect x="0.5" y="0.5" width="86" height="9" fill="none"/></g><g transform="translate(-0.279 117.602)" fill="#fff" stroke="#cccccd" stroke-width="1"><rect width="87" height="13" stroke="none"/><rect x="0.5" y="0.5" width="86" height="12" fill="none"/></g><g transform="translate(-0.279 105.602)" fill="#fff" stroke="#cccccd" stroke-width="1"><rect width="87" height="8" stroke="none"/><rect x="0.5" y="0.5" width="86" height="7" fill="none"/></g><g transform="translate(-0.279 12.602)" fill="#fff" stroke="#cccccd" stroke-width="1"><rect width="87" height="22" stroke="none"/><rect x="0.5" y="0.5" width="86" height="21" fill="none"/></g><g transform="translate(5.721 43.602)" fill="#fff" stroke="#cccccd" stroke-width="1"><rect width="16" height="17" stroke="none"/><rect x="0.5" y="0.5" width="15" height="16" fill="none"/></g><g transform="translate(5.392 74.569)" fill="#fff" stroke="#cccccd" stroke-width="1"><rect width="16.177" height="17.525" stroke="none"/><rect x="0.5" y="0.5" width="15.177" height="16.525" fill="none"/></g><g transform="translate(24.721 43.602)" fill="#fff" stroke="#cccccd" stroke-width="1"><rect width="16" height="17" stroke="none"/><rect x="0.5" y="0.5" width="15" height="16" fill="none"/></g><g transform="translate(24.266 74.569)" fill="#fff" stroke="#cccccd" stroke-width="1"><rect width="16.177" height="17.525" stroke="none"/><rect x="0.5" y="0.5" width="15.177" height="16.525" fill="none"/></g><g transform="translate(44.721 43.602)" fill="#fff" stroke="#cccccd" stroke-width="1"><rect width="16" height="17" stroke="none"/><rect x="0.5" y="0.5" width="15" height="16" fill="none"/></g><g transform="translate(44.487 74.569)" fill="#fff" stroke="#cccccd" stroke-width="1"><rect width="16.177" height="17.525" stroke="none"/><rect x="0.5" y="0.5" width="15.177" height="16.525" fill="none"/></g><g transform="translate(64.721 43.602)" fill="#fff" stroke="#cccccd" stroke-width="1"><rect width="16" height="17" stroke="none"/><rect x="0.5" y="0.5" width="15" height="16" fill="none"/></g><g transform="translate(64.709 74.569)" fill="#fff" stroke="#cccccd" stroke-width="1"><rect width="16.177" height="17.525" stroke="none"/><rect x="0.5" y="0.5" width="15.177" height="16.525" fill="none"/></g><line x2="12.807" transform="translate(66.394 63.361)" fill="none" stroke="#cccccd" stroke-width="1"/><line x2="12.807" transform="translate(66.394 94.791)" fill="none" stroke="#cccccd" stroke-width="1"/><line x2="12.807" transform="translate(46.172 63.361)" fill="none" stroke="#cccccd" stroke-width="1"/><line x2="12.807" transform="translate(46.172 94.791)" fill="none" stroke="#cccccd" stroke-width="1"/><line x2="12.807" transform="translate(25.951 63.361)" fill="none" stroke="#cccccd" stroke-width="1"/><line x2="12.807" transform="translate(25.951 94.791)" fill="none" stroke="#cccccd" stroke-width="1"/><line x2="12.807" transform="translate(7.077 63.361)" fill="none" stroke="#cccccd" stroke-width="1"/><line x2="12.807" transform="translate(7.078 94.791)" fill="none" stroke="#cccccd" stroke-width="1"/><line x2="12.807" transform="translate(66.394 66.481)" fill="none" stroke="#cccccd" stroke-width="1"/><line x2="12.807" transform="translate(66.394 97.911)" fill="none" stroke="#cccccd" stroke-width="1"/><line x2="12.807" transform="translate(46.172 66.481)" fill="none" stroke="#cccccd" stroke-width="1"/><line x2="12.807" transform="translate(46.172 97.911)" fill="none" stroke="#cccccd" stroke-width="1"/><line x2="12.807" transform="translate(25.951 66.481)" fill="none" stroke="#cccccd" stroke-width="1"/><line x2="12.807" transform="translate(25.951 97.911)" fill="none" stroke="#cccccd" stroke-width="1"/><line x2="12.807" transform="translate(7.077 66.481)" fill="none" stroke="#cccccd" stroke-width="1"/></g></g></svg>