<svg xmlns="http://www.w3.org/2000/svg" width="13.987" height="12.822" viewBox="0 0 13.987 12.822"><path d="M13.96,5.542,9.054,10.448a2.918,2.918,0,0,1-4.122,0L.027,5.542C.019,5.634,0,5.717,0,5.809V12.8a2.918,2.918,0,0,0,2.914,2.914h8.159A2.918,2.918,0,0,0,13.987,12.8V5.809C13.987,5.717,13.969,5.634,13.96,5.542Z" transform="translate(0 -2.895)"/><path d="M8.541,7.729l5.323-5.324A2.906,2.906,0,0,0,11.384,1H3.224A2.906,2.906,0,0,0,.744,2.405L6.067,7.729a1.752,1.752,0,0,0,2.473,0Z" transform="translate(-0.31 -1)"/></svg>