<svg xmlns="http://www.w3.org/2000/svg" width="17.104" height="11.851" viewBox="0 0 17.104 11.851"><path d="M10.9,17.283a3.338,3.338,0,0,0,3.358-3.358A3.338,3.338,0,0,0,10.9,10.568a3.338,3.338,0,0,0-3.358,3.358A3.338,3.338,0,0,0,10.9,17.283Zm0-1.146a2.221,2.221,0,0,1-1.57-3.782,2.241,2.241,0,0,1,3.14,0,2.212,2.212,0,0,1-1.57,3.782Zm0,3.713a8.819,8.819,0,0,1-4.967-1.481,10,10,0,0,1-3.466-3.911.773.773,0,0,1-.089-.237,1.5,1.5,0,0,1,0-.593.773.773,0,0,1,.089-.237A10,10,0,0,1,5.935,9.481,8.819,8.819,0,0,1,10.9,8,8.819,8.819,0,0,1,15.87,9.481a10,10,0,0,1,3.466,3.911.773.773,0,0,1,.089.237,1.5,1.5,0,0,1,0,.593.773.773,0,0,1-.089.237,10,10,0,0,1-3.466,3.911A8.819,8.819,0,0,1,10.9,19.851Z" transform="translate(-2.35 -8)" fill="#797979" opacity="0.5"/></svg>