<svg xmlns="http://www.w3.org/2000/svg" width="17.217" height="17.217" viewBox="0 0 17.217 17.217"><path d="M1.435,10.761H7.891v6.456H5.022A3.587,3.587,0,0,1,1.435,13.63ZM17.217,7.891a1.435,1.435,0,0,1-1.435,1.435H9.326v-2.9c-.241.019-.481.031-.717.031s-.476-.012-.717-.031v2.9H1.435A1.435,1.435,0,0,1,0,7.891,2.869,2.869,0,0,1,2.869,5.022H4.116A3.685,3.685,0,0,1,2.869,2.152a.717.717,0,0,1,1.435,0c0,1.881,1.7,2.532,2.994,2.755a6.7,6.7,0,0,1-.842-2.755,2.152,2.152,0,1,1,4.3,0,6.7,6.7,0,0,1-.842,2.755c1.293-.223,2.994-.874,2.994-2.755a.717.717,0,1,1,1.435,0A3.685,3.685,0,0,1,13.1,5.022h1.247A2.869,2.869,0,0,1,17.217,7.891ZM7.891,2.152a5.531,5.531,0,0,0,.717,2.161,5.531,5.531,0,0,0,.717-2.161.717.717,0,1,0-1.435,0ZM9.326,17.217H12.2a3.587,3.587,0,0,0,3.587-3.587V10.761H9.326Z" fill="#797979" opacity="0.5"/></svg>