<svg xmlns="http://www.w3.org/2000/svg" width="104.301" height="104.301" viewBox="0 0 104.301 104.301"><g transform="translate(0)" fill="none" stroke="#e2f864" stroke-width="50" stroke-dasharray="380 1000"><ellipse cx="52.151" cy="52.151" rx="52.151" ry="52.151" stroke="none"/><ellipse cx="52.151" cy="52.151" rx="27.151" ry="27.151" fill="none"/></g><g transform="translate(0)" fill="none" stroke="#000" stroke-width="50" stroke-dasharray="250 1000"><ellipse cx="52.151" cy="52.151" rx="52.151" ry="52.151" stroke="none"/><ellipse cx="52.151" cy="52.151" rx="27.151" ry="27.151" fill="none"/></g><g transform="translate(0)" fill="none" stroke-dasharray="150 1000"><path d="M52.151,0A52.151,52.151,0,1,1,0,52.151,52.151,52.151,0,0,1,52.151,0Z" stroke="none"/><path d="M 52.15056610107422 -7.62939453125e-06 C 80.95249938964844 -7.62939453125e-06 104.3011322021484 23.34861755371094 104.3011322021484 52.15055465698242 C 104.3011322021484 52.15055465698242 104.3011322021484 52.15055465698242 104.3011322021484 52.15055465698242 C 104.3011322021484 52.16286087036133 104.3011245727539 52.17743301391602 104.3011093139648 52.18973541259766 C 104.3011093139648 52.19414138793945 104.3011016845703 52.19756317138672 104.3011016845703 52.20196914672852 C 104.3010940551758 52.21075820922852 104.3010787963867 52.22014617919922 104.3010711669922 52.22893142700195 C 104.3010635375977 52.23333740234375 104.3010482788086 52.23940277099609 104.3010406494141 52.24380874633789 C 104.3010330200195 52.25083541870117 104.3010101318359 52.26130294799805 104.3009948730469 52.26832962036133 C 104.3009872436523 52.27273559570312 104.3009719848633 52.27892684936523 104.3009643554688 52.28332901000977 C 104.3009414672852 52.2921142578125 104.3009185791016 52.30040740966797 104.3008880615234 52.30918884277344 C 104.3008728027344 52.31359481811523 104.3008651733398 52.3184928894043 104.3008499145508 52.32289505004883 C 104.3008117675781 52.33343505859375 104.3007659912109 52.34748458862305 104.3007202148438 52.3580207824707 C 104.3007202148438 52.35948944091797 104.3007125854492 52.36027908325195 104.3007125854492 52.36174774169922 C 104.3006591796875 52.37404251098633 104.3005981445312 52.38849639892578 104.300537109375 52.40078735351562 C 104.3005218505859 52.40372085571289 104.3004989624023 52.40913009643555 104.3004837036133 52.41206359863281 C 104.3004379272461 52.42084503173828 104.3003845214844 52.43165969848633 104.3003387451172 52.44043731689453 C 104.3003158569336 52.44483947753906 104.3002853393555 52.44976425170898 104.3002624511719 52.45416641235352 C 104.3002166748047 52.46118927001953 104.3001556396484 52.47208786010742 104.3001098632812 52.47911071777344 C 104.3000869750977 52.4835090637207 104.3000411987305 52.49021911621094 104.3000183105469 52.4946174621582 C 104.2999572753906 52.50339508056641 104.2999038696289 52.51146697998047 104.2998428344727 52.52024078369141 C 104.2998123168945 52.52463912963867 104.2997817993164 52.52909851074219 104.2997512817383 52.53349685668945 C 104.2996597290039 52.54578399658203 104.2995681762695 52.55789184570312 104.2994766235352 52.57017517089844 C 104.2994613647461 52.57164001464844 104.2994689941406 52.57080841064453 104.2994613647461 52.57227325439453 C 104.2993469238281 52.58631134033203 104.2992553710938 52.59771347045898 104.2991333007812 52.61174774169922 C 104.2991027832031 52.61468124389648 104.2990570068359 52.61982727050781 104.2990341186523 52.62276077270508 C 104.2989501953125 52.63153076171875 104.2988586425781 52.64205551147461 104.2987747192383 52.65082550048828 C 104.2987365722656 52.65522003173828 104.2986831665039 52.66035079956055 104.2986450195312 52.66474533081055 C 104.2985610961914 52.67351531982422 104.298469543457 52.68247985839844 104.2983779907227 52.69124984741211 C 104.2983322143555 52.69564437866211 104.2982940673828 52.69960784912109 104.2982482910156 52.70400619506836 C 104.2981567382812 52.71277236938477 104.2980422973633 52.72371292114258 104.2979431152344 52.73247909545898 C 104.2978973388672 52.73687362670898 104.2978744506836 52.73933029174805 104.2978210449219 52.74372482299805 C 104.2977066040039 52.75424575805664 104.2975540161133 52.76773834228516 104.2974243164062 52.77825546264648 C 104.2974090576172 52.77972030639648 104.2973861694336 52.78168106079102 104.2973709106445 52.78314590454102 C 104.2972030639648 52.79716873168945 104.2970733642578 52.80795669555664 104.2968902587891 52.82197952270508 C 104.2968597412109 52.82490921020508 104.2967758178711 52.83119201660156 104.2967376708984 52.83412170410156 C 104.2966232299805 52.8428840637207 104.2964935302734 52.8526611328125 104.2963790893555 52.86142349243164 C 104.2963180541992 52.86581420898438 104.2962493896484 52.87109756469727 104.2961883544922 52.87548828125 C 104.2960662841797 52.88425064086914 104.2959594726562 52.89226531982422 104.2958374023438 52.90102386474609 C 104.2957763671875 52.90541458129883 104.2957000732422 52.91073608398438 104.2956314086914 52.91513061523438 C 104.2955093383789 52.92388916015625 104.2953643798828 52.93375396728516 104.2952346801758 52.94251251220703 C 104.295166015625 52.94690322875977 104.2951278686523 52.94982147216797 104.2950592041016 52.95420837402344 C 104.2948989868164 52.96471786499023 104.2946929931641 52.97831344604492 104.2945251464844 52.98882293701172 C 104.2945022583008 52.99028778076172 104.2944793701172 52.99192810058594 104.2944564819336 52.99338912963867 C 104.2942352294922 53.00740051269531 104.2940444946289 53.01893615722656 104.293815612793 53.0329475402832 C 104.2937622070312 53.03587341308594 104.293701171875 53.03970336914062 104.2936477661133 53.04262924194336 C 104.2934722900391 53.05313491821289 104.2933349609375 53.06147003173828 104.2931518554688 53.07197570800781 C 104.2930755615234 53.07636260986328 104.2929916381836 53.08105087280273 104.2929153442383 53.0854377746582 C 104.2927627563477 53.09418869018555 104.292610168457 53.1027946472168 104.2924499511719 53.11154556274414 C 104.292366027832 53.11593627929688 104.2922744750977 53.12099456787109 104.2921981811523 53.12538146972656 C 104.2920379638672 53.13413238525391 104.291877746582 53.14278411865234 104.2917098999023 53.15153503417969 C 104.2916259765625 53.15591812133789 104.2915344238281 53.16083145141602 104.2914505004883 53.16521835327148 C 104.2912521362305 53.17571640014648 104.2910690307617 53.18524169921875 104.2908630371094 53.19573974609375 C 104.2908020019531 53.19866561889648 104.2907562255859 53.20109558105469 104.2907028198242 53.20402145385742 C 104.2904205322266 53.218017578125 104.2901916503906 53.229248046875 104.289909362793 53.24324417114258 C 104.2898788452148 53.24470520019531 104.2897796630859 53.24949264526367 104.2897491455078 53.25095367431641 C 104.2895278930664 53.26145172119141 104.2892913818359 53.27289581298828 104.2890625 53.28339004516602 C 104.2890014648438 53.28631210327148 104.2889099121094 53.29074859619141 104.2888412475586 53.29367065429688 C 104.2886199951172 53.30416107177734 104.288459777832 53.31163787841797 104.2882232666016 53.32212829589844 C 104.2881317138672 53.32651138305664 104.2880325317383 53.33070373535156 104.2879409790039 53.33508682250977 C 104.2877044677734 53.34557723999023 104.2875442504883 53.35266494750977 104.2873077392578 53.36315155029297 C 104.2872085571289 53.36753463745117 104.2871475219727 53.3699951171875 104.2870483398438 53.3743782043457 C 104.2868041992188 53.38486480712891 104.2865219116211 53.39711380004883 104.2862701416016 53.4076042175293 C 104.2862396240234 53.40906143188477 104.2861633300781 53.41222381591797 104.2861328125 53.4136848449707 C 104.2857971191406 53.42766952514648 104.2855224609375 53.43896865844727 104.2851791381836 53.45294952392578 C 104.2850723266602 53.45732879638672 104.2850341796875 53.45903015136719 104.2849197387695 53.46340942382812 C 104.2847061157227 53.47214889526367 104.2844467163086 53.48262023925781 104.2842254638672 53.49135589599609 C 104.2840805053711 53.49719619750977 104.2839736938477 53.50114059448242 104.2838287353516 53.50698089599609 C 104.2836074829102 53.51571655273438 104.2834320068359 53.52241897583008 104.283203125 53.53115463256836 C 104.2830505371094 53.53699493408203 104.2829895019531 53.53939056396484 104.2828369140625 53.54522705078125 C 104.2826080322266 53.55396270751953 104.2823486328125 53.56375503540039 104.282112121582 53.57248687744141 C 104.2819976806641 53.57686614990234 104.2819137573242 53.58017730712891 104.2817916870117 53.58455276489258 C 104.2815093994141 53.59503173828125 104.2811965942383 53.60646438598633 104.2809066772461 53.616943359375 C 104.2808685302734 53.61840057373047 104.2807693481445 53.62198257446289 104.2807312011719 53.62344360351562 C 104.2803421020508 53.63741302490234 104.2800216674805 53.64871978759766 104.2796249389648 53.66268539428711 C 104.2795028686523 53.66706085205078 104.2794799804688 53.66781234741211 104.2793502807617 53.67218780517578 C 104.2790985107422 53.68091583251953 104.2787475585938 53.69330215454102 104.2784881591797 53.70203018188477 C 104.2783584594727 53.70640182495117 104.2782363891602 53.71074676513672 104.2781066894531 53.71512222290039 C 104.2778472900391 53.72385025024414 104.2776031494141 53.73200225830078 104.27734375 53.74073028564453 C 104.2771682739258 53.74656295776367 104.2770767211914 53.74971771240234 104.2769012451172 53.75555038452148 C 104.2766342163086 53.76427841186523 104.2763748168945 53.77278900146484 104.2761077880859 53.78151321411133 C 104.2760162353516 53.78442764282227 104.2758026123047 53.79147720336914 104.2757110595703 53.79439163208008 C 104.2753829956055 53.80485916137695 104.2750930786133 53.81432723999023 104.2747573852539 53.82479476928711 C 104.2746658325195 53.82770919799805 104.2745819091797 53.83039855957031 104.2744903564453 53.83331298828125 C 104.2740478515625 53.84727096557617 104.2736740112305 53.85905075073242 104.2732162475586 53.87300491333008 C 104.2731246948242 53.87591934204102 104.2731552124023 53.8748893737793 104.273063659668 53.87780380249023 C 104.2727203369141 53.88827133178711 104.2723083496094 53.90093231201172 104.2719573974609 53.91139602661133 C 104.2718124389648 53.91576385498047 104.2716522216797 53.92050170898438 104.2715072631836 53.92487335205078 C 104.2712173461914 53.93358993530273 104.2709350585938 53.9420166015625 104.270637512207 53.95073318481445 C 104.2704925537109 53.95510482788086 104.2703247070312 53.96002197265625 104.2701721191406 53.96439361572266 C 104.2698745727539 53.97311019897461 104.2695693969727 53.98193740844727 104.2692718505859 53.99065399169922 C 104.2691192626953 53.99502182006836 104.2689514160156 53.9998779296875 104.268798828125 54.00424575805664 C 104.2684936523438 54.01296234130859 104.2680892944336 54.02426528930664 104.2677841186523 54.03298187255859 C 104.2676773071289 54.03589248657227 104.2675323486328 54.04004287719727 104.2674331665039 54.0429573059082 C 104.2669372558594 54.05690002441406 104.2665405273438 54.06787872314453 104.2660293579102 54.08181762695312 C 104.2659225463867 54.0847282409668 104.2658843994141 54.08572769165039 104.2657775878906 54.08863830566406 C 104.2653961181641 54.09909439086914 104.2649536132812 54.11109924316406 104.2645645141602 54.12155151367188 C 104.264404296875 54.12591552734375 104.2643127441406 54.12847137451172 104.2641448974609 54.13283920288086 C 104.2638168334961 54.14154815673828 104.2634735107422 54.15072631835938 104.2631454467773 54.1594352722168 C 104.2629776000977 54.16379928588867 104.2627334594727 54.17026519775391 104.262565612793 54.17463302612305 C 104.2622985839844 54.18159866333008 104.2618865966797 54.19234085083008 104.2616195678711 54.19930648803711 C 104.2614517211914 54.20367050170898 104.26123046875 54.20936965942383 104.2610626220703 54.2137336730957 C 104.2607192993164 54.22243881225586 104.2603073120117 54.23300933837891 104.2599639892578 54.24171447753906 C 104.2598495483398 54.24462127685547 104.2596740722656 54.24914169311523 104.2595596313477 54.25204849243164 C 104.2585220336914 54.27816390991211 104.2574768066406 54.3040771484375 104.2564010620117 54.33018112182617 C 104.2562255859375 54.33454132080078 104.2560882568359 54.33786392211914 104.2559051513672 54.34222793579102 C 104.2555465698242 54.35092926025391 104.2551193237305 54.36118698120117 104.254753112793 54.3698844909668 C 104.2545700073242 54.37424850463867 104.2544403076172 54.37740325927734 104.2542572021484 54.38176727294922 C 104.2538146972656 54.39220428466797 104.2535095214844 54.3994255065918 104.2530670166016 54.40986251831055 C 104.2528839111328 54.41422271728516 104.2527389526367 54.41761779785156 104.2525482177734 54.42197799682617 C 104.2521743774414 54.4306755065918 104.2516784667969 54.44214630126953 104.2513046264648 54.45084381103516 C 104.2511749267578 54.45375061035156 104.2509765625 54.45834732055664 104.2508544921875 54.46125030517578 C 104.250244140625 54.47516632080078 104.2497634887695 54.48611831665039 104.2491455078125 54.50003051757812 C 104.2490844726562 54.50148010253906 104.2489929199219 54.5035514831543 104.2489242553711 54.50500106811523 C 104.2484588623047 54.51543426513672 104.2478637695312 54.52886199951172 104.2473907470703 54.53929138183594 C 104.2471923828125 54.54365158081055 104.2470703125 54.54644775390625 104.2468719482422 54.55080795288086 C 104.2464752197266 54.55949783325195 104.2460327148438 54.56921005249023 104.2456359863281 54.57789993286133 C 104.2454376220703 54.58225631713867 104.2451782226562 54.58777618408203 104.2449798583984 54.59213256835938 C 104.2446594238281 54.59908294677734 104.244140625 54.61032104492188 104.2438201904297 54.61727142333984 C 104.2436141967773 54.62162780761719 104.2433547973633 54.62718200683594 104.2431488037109 54.63153839111328 C 104.2427444458008 54.64022827148438 104.2423248291016 54.64909362792969 104.2419128417969 54.65777969360352 C 104.2417068481445 54.66213607788086 104.2415237426758 54.66603469848633 104.2413177490234 54.67038726806641 C 104.2407379150391 54.68254852294922 104.2400665283203 54.69655227661133 104.2394790649414 54.70870971679688 C 104.2394104003906 54.71016311645508 104.2392959594727 54.71258163452148 104.2392196655273 54.71403503417969 C 104.2387161254883 54.72445678710938 104.2381286621094 54.73651504516602 104.2376174926758 54.7469367980957 C 104.2374038696289 54.75128936767578 104.2370910644531 54.75764465332031 104.2368774414062 54.76199722290039 C 104.2364501953125 54.77067947387695 104.2361297607422 54.77721786499023 104.2356948852539 54.7859001159668 C 104.235481262207 54.79025268554688 104.2351303100586 54.7972297668457 104.2349090576172 54.80158233642578 C 104.2345657348633 54.80852508544922 104.2341156005859 54.81739044189453 104.2337646484375 54.82433319091797 C 104.2334747314453 54.83013534545898 104.2331924438477 54.83563995361328 104.2329025268555 54.8414421081543 C 104.2324600219727 54.85012054443359 104.2321243286133 54.85672760009766 104.2316741943359 54.86540985107422 C 104.2314529418945 54.86975860595703 104.2312088012695 54.87461090087891 104.2309799194336 54.87895965576172 C 104.2304458618164 54.88937377929688 104.2297058105469 54.90354537963867 104.2291641235352 54.91395950317383 C 104.2290115356445 54.9168586730957 104.2289733886719 54.91770172119141 104.2288208007812 54.92060089111328 C 104.228271484375 54.93101501464844 104.2274932861328 54.94589614868164 104.226936340332 54.95630645751953 C 104.2267074584961 54.96065521240234 104.2264938354492 54.96471405029297 104.2262573242188 54.96905899047852 C 104.2257995605469 54.97773361206055 104.2254028320312 54.98515319824219 104.2249374389648 54.99382781982422 C 104.2247009277344 54.99817657470703 104.2242431640625 55.00668716430664 104.224006652832 55.01103210449219 C 104.2236328125 55.01797103881836 104.2232208251953 55.02550506591797 104.2228469848633 55.03244400024414 C 104.222526550293 55.03823852539062 104.2222061157227 55.04416656494141 104.2218856811523 55.04996109008789 C 104.2214126586914 55.05863189697266 104.2211685180664 55.06311416625977 104.2206878662109 55.07178497314453 C 104.2203674316406 55.07757949829102 104.2201080322266 55.08232116699219 104.2197875976562 55.08811569213867 C 104.2192077636719 55.09851837158203 104.2186431884766 55.10856628417969 104.2180633544922 55.11896514892578 C 104.2178955078125 55.12186431884766 104.2177276611328 55.12487030029297 104.2175674438477 55.12776565551758 C 104.2168884277344 55.13990020751953 104.2162017822266 55.15198516845703 104.2155075073242 55.16411590576172 C 104.2152633666992 55.16846084594727 104.2149963378906 55.17313003540039 104.2147445678711 55.17747497558594 C 104.2142486572266 55.18613815307617 104.2137603759766 55.19468307495117 104.2132568359375 55.20335006713867 C 104.213005065918 55.20769119262695 104.2127304077148 55.21245574951172 104.2124786376953 55.21680068969727 C 104.2120742797852 55.22372817993164 104.2113876342773 55.23554229736328 104.2109832763672 55.24247360229492 C 104.2107315063477 55.2468147277832 104.2103958129883 55.25259780883789 104.2101364135742 55.25693893432617 C 104.2096328735352 55.26560211181641 104.2091064453125 55.27441024780273 104.2085952758789 55.28307342529297 C 104.2083358764648 55.28741455078125 104.208137512207 55.29085540771484 104.207878112793 55.29519653320312 C 104.2072601318359 55.30559158325195 104.2066268920898 55.31621170043945 104.2060012817383 55.32660293579102 C 104.2058258056641 55.32949829101562 104.205696105957 55.33170318603516 104.2055206298828 55.3345947265625 C 104.2046890258789 55.34844970703125 104.2040405273438 55.35906600952148 104.2032012939453 55.37291717529297 C 104.2030181884766 55.37580871582031 104.202751159668 55.38020324707031 104.2025756835938 55.38309478759766 C 104.2020416259766 55.39175415039062 104.2013702392578 55.40280532836914 104.2008361816406 55.41146087646484 C 104.2005615234375 55.41579818725586 104.2002792358398 55.42045593261719 104.2000045776367 55.4247932434082 C 104.1994705200195 55.43344497680664 104.1989135742188 55.44240188598633 104.198371887207 55.45105361938477 C 104.1981048583984 55.45539474487305 104.1978149414062 55.4599609375 104.1975479125977 55.46429824829102 C 104.1970062255859 55.47295379638672 104.1964340209961 55.4820442199707 104.1958847045898 55.49069595336914 C 104.1956100463867 55.49503326416016 104.1953659057617 55.49892044067383 104.1950912475586 55.50325775146484 C 104.1943206787109 55.5153694152832 104.1935958862305 55.5267219543457 104.1928176879883 55.5388298034668 C 104.1927261352539 55.54027557373047 104.1927337646484 55.54016494750977 104.1926422119141 55.54161071777344 C 104.1917572021484 55.55545043945312 104.1910171508789 55.56686401367188 104.1901168823242 55.5806999206543 C 104.1899337768555 55.58359146118164 104.1896286010742 55.58818817138672 104.1894454956055 55.5910758972168 C 104.1888809204102 55.59972381591797 104.1881637573242 55.61061859130859 104.1875991821289 55.61926651000977 C 104.1873168945312 55.62360000610352 104.1870193481445 55.6280403137207 104.1867370605469 55.63237380981445 C 104.186164855957 55.64101791381836 104.1855850219727 55.6497802734375 104.1850128173828 55.65842437744141 C 104.1847229003906 55.66275787353516 104.1843795776367 55.66800308227539 104.1840896606445 55.67233657836914 C 104.1835098266602 55.68098068237305 104.182861328125 55.69062042236328 104.1822814941406 55.69926452636719 C 104.1819915771484 55.70359420776367 104.1818237304688 55.7061767578125 104.181526184082 55.71051025390625 C 104.1808319091797 55.72087860107422 104.1799392700195 55.7339973449707 104.1792373657227 55.74436569213867 C 104.1790390014648 55.74725341796875 104.179084777832 55.74658203125 104.1788864135742 55.74946975708008 C 104.1779479980469 55.7632942199707 104.1771240234375 55.77528381347656 104.1761703491211 55.78910446166992 C 104.1760711669922 55.79055023193359 104.1758270263672 55.79410171508789 104.1757278442383 55.7955436706543 C 104.1750106811523 55.80591201782227 104.1742935180664 55.81622314453125 104.1735763549805 55.82658767700195 C 104.1731719970703 55.83235931396484 104.1730041503906 55.83475112915039 104.1725997924805 55.84052276611328 C 104.1719970703125 55.84915924072266 104.1714019775391 55.85770034790039 104.1707916259766 55.86633682250977 C 104.1704864501953 55.87066268920898 104.1701812744141 55.87494659423828 104.1698760986328 55.87927627563477 C 104.1691436767578 55.8896369934082 104.1686477661133 55.89668655395508 104.1679077148438 55.90704345703125 C 104.1676025390625 55.91137313842773 104.1674499511719 55.91344833374023 104.1671447753906 55.91777420043945 C 104.1664047241211 55.92813491821289 104.1654663085938 55.94123458862305 104.1647186279297 55.95159149169922 C 104.1645126342773 55.95447540283203 104.16455078125 55.95396423339844 104.1643447875977 55.95684814453125 C 104.1633453369141 55.97065734863281 104.1624984741211 55.9823112487793 104.161491394043 55.99611663818359 C 104.1613922119141 55.99755859375 104.1610641479492 56.00204467773438 104.1609573364258 56.00348663330078 C 104.1602020263672 56.01383972167969 104.159423828125 56.02443695068359 104.1586608886719 56.0347900390625 C 104.158447265625 56.03767395019531 104.1580429077148 56.04320526123047 104.157829284668 56.04608535766602 C 104.1570587158203 56.05643844604492 104.1565475463867 56.06341552734375 104.1557769775391 56.07376861572266 C 104.1554565429688 56.07809066772461 104.1550979614258 56.08283996582031 104.1547775268555 56.08716201782227 C 104.1541366577148 56.09578704833984 104.153564453125 56.10337829589844 104.1529159545898 56.11200332641602 C 104.1524810791016 56.11776733398438 104.1522827148438 56.1204719543457 104.1518478393555 56.12623596191406 C 104.1511993408203 56.13485717773438 104.150505065918 56.14401245117188 104.1498489379883 56.15263366699219 C 104.1495208740234 56.15695571899414 104.1492233276367 56.16088104248047 104.1488952636719 56.16520309448242 C 104.1478500366211 56.17899703979492 104.1470718383789 56.18915939331055 104.1460113525391 56.20295333862305 C 104.1456756591797 56.207275390625 104.1456298828125 56.20788955688477 104.1452941894531 56.21221160888672 C 104.1446304321289 56.22082901000977 104.1437530517578 56.23221206665039 104.1430816650391 56.2408332824707 C 104.1426391601562 56.2465934753418 104.1424026489258 56.24956130981445 104.1419525146484 56.25532150268555 C 104.1412811279297 56.26393890380859 104.1407089233398 56.27128219604492 104.1400375366211 56.27989959716797 C 104.1395874023438 56.2856559753418 104.1393432617188 56.28872299194336 104.1388931274414 56.29448318481445 C 104.1382141113281 56.30309677124023 104.1375885009766 56.31102752685547 104.1369094848633 56.31964492797852 C 104.1365661621094 56.3239631652832 104.1362075805664 56.32848358154297 104.1358642578125 56.33280181884766 C 104.1350479125977 56.34313583374023 104.1343460083008 56.35196685791016 104.1335144042969 56.3623046875 C 104.133171081543 56.36661911010742 104.1331253051758 56.36718368530273 104.1327819824219 56.37150192260742 C 104.1316757202148 56.38528060913086 104.1308059692383 56.39613342285156 104.1296920776367 56.40990829467773 C 104.1294555664062 56.41278457641602 104.129280090332 56.41493988037109 104.1290512084961 56.41781616210938 C 104.1282119750977 56.42815017700195 104.1273803710938 56.43836975097656 104.1265411376953 56.44869995117188 C 104.1261901855469 56.4530143737793 104.1259460449219 56.45594787597656 104.1255950927734 56.46026229858398 C 104.1248931884766 56.4688720703125 104.1240844726562 56.47872161865234 104.1233749389648 56.48732757568359 C 104.1229019165039 56.49308013916016 104.1227264404297 56.49519348144531 104.1222534179688 56.50094604492188 C 104.1215438842773 56.50955200195312 104.1207733154297 56.51877212524414 104.1200637817383 56.52737808227539 C 104.1198196411133 56.53025054931641 104.1193313598633 56.53617095947266 104.1190948486328 56.53904724121094 C 104.1182327270508 56.54936981201172 104.1172256469727 56.56135940551758 104.1163635253906 56.57168197631836 C 104.1162414550781 56.5731201171875 104.1159973144531 56.5760383605957 104.1158752441406 56.57747650146484 C 104.1137084960938 56.6032829284668 104.1114730834961 56.62957000732422 104.1092681884766 56.65536880493164 C 104.1089019775391 56.6596794128418 104.1086578369141 56.66250610351562 104.108283996582 56.66681671142578 C 104.107551574707 56.6754150390625 104.1066360473633 56.68605804443359 104.1058959960938 56.69465637207031 C 104.1055221557617 56.69896697998047 104.105224609375 56.70237350463867 104.104850769043 56.70668411254883 C 104.1039581298828 56.71699905395508 104.103385925293 56.72358703613281 104.1024932861328 56.73390197753906 C 104.1022415161133 56.73677444458008 104.1017074584961 56.74288558959961 104.1014556884766 56.74575805664062 C 104.1005554199219 56.75607299804688 104.0997619628906 56.76513290405273 104.0988540649414 56.77544784545898 C 104.0986022949219 56.77831649780273 104.0982894897461 56.78189468383789 104.0980377197266 56.78476715087891 C 104.0968246459961 56.79851531982422 104.0958557128906 56.80946350097656 104.0946350097656 56.82321166992188 C 104.0943832397461 56.82608032226562 104.094352722168 56.82643508911133 104.0940933227539 56.82930755615234 C 104.0931777954102 56.83961868286133 104.0921173095703 56.85152816772461 104.091194152832 56.86183547973633 C 104.0908050537109 56.86614227294922 104.0906143188477 56.86830520629883 104.0902252197266 56.87261199951172 C 104.0893020629883 56.88291931152344 104.0885848999023 56.89090728759766 104.0876541137695 56.90121459960938 C 104.0872650146484 56.905517578125 104.0869827270508 56.90864944458008 104.0865859985352 56.9129524230957 C 104.0856552124023 56.92325973510742 104.0849990844727 56.9305305480957 104.0840606689453 56.94083023071289 C 104.0837936401367 56.94370269775391 104.0833358764648 56.94878387451172 104.0830688476562 56.95165252685547 C 104.0821304321289 56.96195602416992 104.0812301635742 56.9717903137207 104.0802841186523 56.98208999633789 C 104.0800247192383 56.98495864868164 104.0797424316406 56.98799514770508 104.0794830322266 56.99086380004883 C 104.0771102905273 57.0166130065918 104.0746841430664 57.04275512695312 104.0722732543945 57.06849670410156 C 104.0720062255859 57.07136154174805 104.071647644043 57.07516479492188 104.0713806152344 57.07802963256836 C 104.0704193115234 57.08832550048828 104.0695877075195 57.09712982177734 104.0686187744141 57.107421875 C 104.0682144165039 57.11172103881836 104.0679321289062 57.11473083496094 104.0675201416016 57.1190299987793 C 104.0665512084961 57.12932205200195 104.0659255981445 57.13594818115234 104.06494140625 57.146240234375 C 104.0645370483398 57.15053939819336 104.0642242431641 57.1538200378418 104.0638122558594 57.15811538696289 C 104.0628356933594 57.16840744018555 104.0619430541992 57.17771530151367 104.0609588623047 57.18800354003906 C 104.0606842041016 57.19086837768555 104.0603866577148 57.19400405883789 104.0601119995117 57.19686889648438 C 104.0587921142578 57.21058654785156 104.0576934814453 57.22201156616211 104.0563659667969 57.23572540283203 C 104.0562286376953 57.23715591430664 104.0562896728516 57.23649215698242 104.05615234375 57.23792266845703 C 104.0549926757812 57.24992370605469 104.0538558959961 57.26157760620117 104.0526885986328 57.27357482910156 C 104.0522689819336 57.27787399291992 104.051872253418 57.28190612792969 104.0514526367188 57.28620147705078 C 104.0506134033203 57.29477310180664 104.0497589111328 57.30350494384766 104.0489196777344 57.31207275390625 C 104.0485000610352 57.31636810302734 104.0479202270508 57.32220458984375 104.0475006103516 57.32649993896484 C 104.0468215942383 57.33335494995117 104.0457763671875 57.34398651123047 104.0450973510742 57.35083770751953 C 104.0446701049805 57.35513305664062 104.0441436767578 57.36044311523438 104.0437164306641 57.3647346496582 C 104.0428695678711 57.3733024597168 104.0419158935547 57.38283538818359 104.0410614013672 57.39139938354492 C 104.0406341552734 57.39569473266602 104.0402984619141 57.39908599853516 104.0398712158203 57.40338134765625 C 104.037467956543 57.42736053466797 104.0347366333008 57.45447158813477 104.0323028564453 57.47844314575195 C 104.031867980957 57.48273468017578 104.0311508178711 57.48977279663086 104.0307159423828 57.49406433105469 C 104.0298461914062 57.50262451171875 104.0292205810547 57.50877380371094 104.0283432006836 57.51733016967773 C 104.0279083251953 57.52162170410156 104.0272521972656 57.52802658081055 104.0268096923828 57.53231811523438 C 104.0261077880859 57.53916168212891 104.0250244140625 57.54970550537109 104.0243225097656 57.55655288696289 C 104.0238800048828 57.56084060668945 104.0233383178711 57.5660514831543 104.0228958129883 57.57033920288086 C 104.0220108032227 57.57889556884766 104.0210189819336 57.58851623535156 104.0201263427734 57.59707260131836 C 104.0196838378906 57.60136032104492 104.0193405151367 57.60468292236328 104.0188980102539 57.60897064208984 C 104.016227722168 57.6346321105957 104.013542175293 57.66028594970703 104.0108337402344 57.68593978881836 C 104.0105285644531 57.68879699707031 104.0102844238281 57.69112014770508 104.0099792480469 57.69397735595703 C 104.0088958740234 57.7042350769043 104.0078506469727 57.71413803100586 104.0067596435547 57.72439575195312 C 104.0063018798828 57.72868347167969 104.005973815918 57.73176574707031 104.0055160522461 57.73604965209961 C 104.0044250488281 57.74631118774414 104.0037384033203 57.75279235839844 104.0026397705078 57.7630500793457 C 104.0021820068359 57.767333984375 104.0018005371094 57.7708625793457 104.0013427734375 57.775146484375 C 104.0004272460938 57.78369140625 103.9992904663086 57.79425430297852 103.9983673095703 57.80279922485352 C 103.9979095458984 57.80708312988281 103.9976119995117 57.80984878540039 103.9971466064453 57.81413269042969 C 103.9943771362305 57.83976364135742 103.9916381835938 57.86495971679688 103.9888381958008 57.89057922363281 C 103.988525390625 57.8934326171875 103.9880065917969 57.89810943603516 103.9876937866211 57.90096282958984 C 103.9867553710938 57.90950393676758 103.9855346679688 57.92061233520508 103.9845962524414 57.92914962768555 C 103.9841232299805 57.93342971801758 103.9836730957031 57.93752288818359 103.9832000732422 57.94180297851562 C 103.9822540283203 57.95034027099609 103.9812850952148 57.95914840698242 103.9803314208984 57.96768569946289 C 103.9798583984375 57.97196578979492 103.9794006347656 57.97611999511719 103.9789199829102 57.98040008544922 C 103.977783203125 57.99064254760742 103.976921081543 57.99839401245117 103.9757690429688 58.00863647460938 C 103.9752960205078 58.01291656494141 103.9750900268555 58.01471328735352 103.9746170043945 58.01899337768555 C 103.973274230957 58.03094100952148 103.9719085693359 58.04312133789062 103.9705657958984 58.0550651550293 C 103.9704055786133 58.05649185180664 103.9704818725586 58.0557746887207 103.9703216552734 58.05719757080078 C 103.9687805175781 58.07085037231445 103.9675140380859 58.08207321166992 103.9659652709961 58.09572219848633 C 103.9656448364258 58.09857559204102 103.9651718139648 58.10272598266602 103.96484375 58.10557556152344 C 103.9636840820312 58.11581420898438 103.9628143310547 58.12339019775391 103.9616470336914 58.13362503051758 C 103.9611587524414 58.13790130615234 103.9605407714844 58.14329147338867 103.9600524902344 58.14756393432617 C 103.9590759277344 58.15609359741211 103.9581832885742 58.16387939453125 103.9572067260742 58.17240524291992 C 103.9567108154297 58.17667770385742 103.9561767578125 58.18130874633789 103.9556884765625 58.18558120727539 C 103.954704284668 58.19411087036133 103.9535293579102 58.20430755615234 103.9525375366211 58.21282958984375 C 103.9520416259766 58.21710586547852 103.9517517089844 58.21965408325195 103.9512557983398 58.22392654418945 C 103.9482879638672 58.2495002746582 103.9453277587891 58.2749137878418 103.9423217773438 58.30047607421875 C 103.9419860839844 58.30332183837891 103.941535949707 58.3071403503418 103.9412002563477 58.30998992919922 C 103.9399948120117 58.32021331787109 103.9389419555664 58.32918167114258 103.9377288818359 58.33940505981445 C 103.9373931884766 58.34225082397461 103.9367980957031 58.3472900390625 103.9364624023438 58.35013580322266 C 103.9352493286133 58.36035919189453 103.9343490600586 58.36795806884766 103.9331283569336 58.37817764282227 C 103.9326248168945 58.3824462890625 103.9322891235352 58.38529205322266 103.9317779541016 58.38956069946289 C 103.9305572509766 58.3997802734375 103.9296035766602 58.40773391723633 103.9283828735352 58.41795349121094 C 103.9278717041016 58.42221832275391 103.9276275634766 58.42424392700195 103.927116394043 58.42851257324219 C 103.925895690918 58.43872833251953 103.9243316650391 58.45167922973633 103.9231033325195 58.46189498901367 C 103.9229278564453 58.46331787109375 103.9226989746094 58.46527099609375 103.9225234985352 58.46669387817383 C 103.9208831787109 58.48031234741211 103.9194107055664 58.49241638183594 103.9177551269531 58.50603485107422 C 103.9175872802734 58.5074577331543 103.9173965454102 58.50898742675781 103.9172286987305 58.51041030883789 C 103.9159851074219 58.52062225341797 103.9143676757812 58.53389358520508 103.9131164550781 58.54410552978516 C 103.9127731323242 58.54694747924805 103.9121551513672 58.55196762084961 103.9118041992188 58.55481338500977 C 103.9105606079102 58.56502151489258 103.9096755981445 58.57222747802734 103.9084167480469 58.58243560791016 C 103.9078903198242 58.58670043945312 103.9075088500977 58.58980178833008 103.906982421875 58.59406661987305 C 103.9057312011719 58.60427474975586 103.9048080444336 58.61173248291016 103.9035415649414 58.6219367980957 C 103.9030151367188 58.62620162963867 103.9027252197266 58.6285400390625 103.9021987915039 58.63280487060547 C 103.8990325927734 58.65831756591797 103.8957672119141 58.68454742431641 103.8925628662109 58.71004867553711 C 103.8923873901367 58.71146774291992 103.8920669555664 58.71402359008789 103.8918838500977 58.7154426574707 C 103.8906021118164 58.72564315795898 103.889030456543 58.7381706237793 103.8877410888672 58.74836730957031 C 103.8873825073242 58.7512092590332 103.8868255615234 58.75563049316406 103.8864593505859 58.75846862792969 C 103.8851699829102 58.7686653137207 103.8841552734375 58.77668762207031 103.8828659057617 58.78688049316406 C 103.8824996948242 58.78972244262695 103.8818206787109 58.79507827758789 103.881462097168 58.79792022705078 C 103.8801651000977 58.80811309814453 103.8789596557617 58.81757354736328 103.8776550292969 58.82776641845703 C 103.8772888183594 58.83060455322266 103.876953125 58.83325958251953 103.8765869140625 58.83609771728516 C 103.8750686645508 58.84799194335938 103.8734283447266 58.86075973510742 103.8719024658203 58.87264633178711 C 103.8719024658203 58.87264633178711 103.8716659545898 58.87446594238281 103.8716659545898 58.87446594238281 C 103.8699188232422 58.88805389404297 103.8682708740234 58.90081024169922 103.8665084838867 58.91439437866211 C 103.8665084838867 58.91439437866211 103.8661117553711 58.91748428344727 103.8661117553711 58.91748428344727 C 103.8647842407227 58.92767333984375 103.862907409668 58.94217681884766 103.8615798950195 58.95236206054688 C 103.8612060546875 58.9552001953125 103.8606033325195 58.95984649658203 103.8602294921875 58.96268463134766 C 103.8589019775391 58.97286987304688 103.8579025268555 58.98054122924805 103.8565673828125 58.99072647094727 C 103.8561935424805 58.99356079101562 103.8554763793945 58.99906158447266 103.8551025390625 59.00189590454102 C 103.8537673950195 59.01208114624023 103.8526229858398 59.02073287963867 103.8512878417969 59.03091430664062 C 103.8509140014648 59.03374862670898 103.8504333496094 59.03740310668945 103.8500518798828 59.04023742675781 C 103.8466949462891 59.06568908691406 103.8431015014648 59.09277725219727 103.8397064208984 59.11821746826172 C 103.8397064208984 59.11821746826172 103.8394088745117 59.12042999267578 103.8394088745117 59.12042999267578 C 103.8378219604492 59.13230133056641 103.8361587524414 59.14469909667969 103.8345718383789 59.15656661987305 C 103.8341903686523 59.15940093994141 103.8338088989258 59.16222763061523 103.8334274291992 59.16506195068359 C 103.8320617675781 59.17523574829102 103.8307723999023 59.18478012084961 103.8293991088867 59.19495010375977 C 103.8290176391602 59.19778442382812 103.8284301757812 59.2021369934082 103.8280487060547 59.20497131347656 C 103.8266677856445 59.21514129638672 103.8252334594727 59.22574234008789 103.8238525390625 59.23590850830078 C 103.8234710693359 59.23874282836914 103.8232421875 59.24039840698242 103.8228607177734 59.24322891235352 C 103.8214721679688 59.25339889526367 103.8195190429688 59.26772689819336 103.8181304931641 59.27789306640625 C 103.8179397583008 59.2793083190918 103.8177490234375 59.28071212768555 103.8175582885742 59.28212738037109 C 103.813850402832 59.30923843383789 103.810546875 59.33327102661133 103.8067932128906 59.36036682128906 C 103.8066024780273 59.36178207397461 103.8059387207031 59.36652755737305 103.8057479858398 59.36794281005859 C 103.8043365478516 59.37810516357422 103.8029327392578 59.38825607299805 103.8015213012695 59.39841842651367 C 103.8011245727539 59.4012451171875 103.8004684448242 59.40593338012695 103.8000793457031 59.40876388549805 C 103.7986602783203 59.41892242431641 103.7976226806641 59.42638778686523 103.7962036132812 59.43654251098633 C 103.7958068847656 59.43937301635742 103.7949676513672 59.44539260864258 103.7945709228516 59.44821929931641 C 103.7931442260742 59.4583740234375 103.7914352416992 59.47055053710938 103.7900085449219 59.48070526123047 C 103.7898101806641 59.48211669921875 103.7895584106445 59.48392868041992 103.7893600463867 59.4853401184082 C 103.7874526977539 59.49887847900391 103.7856826782227 59.51144409179688 103.7837677001953 59.52497863769531 C 103.783561706543 59.52639007568359 103.7838363647461 59.52447509765625 103.7836380004883 59.5258903503418 C 103.7817230224609 59.53942489624023 103.7802429199219 59.54980850219727 103.7783203125 59.5633430480957 C 103.7779159545898 59.56616973876953 103.7775955200195 59.56841278076172 103.7771911621094 59.57123947143555 C 103.775749206543 59.58138656616211 103.7743072509766 59.59149932861328 103.7728500366211 59.60164642333984 C 103.7724456787109 59.60446929931641 103.771842956543 59.60871887207031 103.7714385986328 59.61154556274414 C 103.7699813842773 59.62168884277344 103.7685470581055 59.63166427612305 103.76708984375 59.64180755615234 C 103.7666854858398 59.64463424682617 103.7663116455078 59.64721298217773 103.7659072875977 59.6500358581543 C 103.7644424438477 59.66017913818359 103.7627029418945 59.67226409912109 103.7612380981445 59.68240356445312 C 103.7610321044922 59.68381500244141 103.7605056762695 59.68743515014648 103.7602996826172 59.68884658813477 C 103.7563858032227 59.71588897705078 103.7529983520508 59.73917388916016 103.7490463256836 59.76620101928711 C 103.7486343383789 59.76902389526367 103.7482452392578 59.77162933349609 103.7478332519531 59.77445220947266 C 103.7463531494141 59.78458786010742 103.7448348999023 59.7949333190918 103.7433395385742 59.8050651550293 C 103.7429275512695 59.80788803100586 103.7424545288086 59.81108093261719 103.7420425415039 59.81390380859375 C 103.7405471801758 59.82403564453125 103.7390975952148 59.83389663696289 103.7375946044922 59.84402847290039 C 103.737174987793 59.84684753417969 103.7366561889648 59.85039520263672 103.7362365722656 59.85321807861328 C 103.734489440918 59.86503601074219 103.732536315918 59.87817001342773 103.7307815551758 59.88998413085938 C 103.7307815551758 59.88998413085938 103.7307510375977 59.89016342163086 103.7307510375977 59.89016342163086 C 103.7267379760742 59.91717147827148 103.7229385375977 59.94254302978516 103.718879699707 59.96953964233398 C 103.7184600830078 59.97235870361328 103.7183837890625 59.97282791137695 103.7179641723633 59.97564697265625 C 103.716438293457 59.98576736450195 103.714714050293 59.9971923828125 103.7131881713867 60.0073127746582 C 103.7125473022461 60.01153945922852 103.7123489379883 60.01285552978516 103.7117080688477 60.01708221435547 C 103.7101821899414 60.02720260620117 103.7087249755859 60.03680038452148 103.7071914672852 60.04691696166992 C 103.7067565917969 60.04973602294922 103.7062759399414 60.05292510986328 103.7058486938477 60.05574417114258 C 103.7043075561523 60.06586074829102 103.7028198242188 60.07561111450195 103.7012786865234 60.08572769165039 C 103.7008514404297 60.08854293823242 103.700325012207 60.09200286865234 103.6998901367188 60.09481811523438 C 103.6957702636719 60.12179183959961 103.6922149658203 60.14495468139648 103.6880493164062 60.17191314697266 C 103.687614440918 60.17472839355469 103.6875228881836 60.17532348632812 103.6870880126953 60.17813873291016 C 103.6855239868164 60.18824768066406 103.683708190918 60.19998168945312 103.6821365356445 60.21008682250977 C 103.6817016601562 60.2129020690918 103.6811752319336 60.21630096435547 103.6807403564453 60.2191162109375 C 103.6791687011719 60.22922134399414 103.6776885986328 60.23872375488281 103.6761169433594 60.24882888793945 C 103.6756744384766 60.25164413452148 103.6751022338867 60.25531005859375 103.6746673583984 60.25812530517578 C 103.6728210449219 60.26991653442383 103.6709747314453 60.28176498413086 103.6691207885742 60.29355239868164 C 103.6691207885742 60.29355239868164 103.6688766479492 60.29510498046875 103.6688766479492 60.29510498046875 C 103.6646575927734 60.32204818725586 103.6605834960938 60.34789657592773 103.6563110351562 60.37482070922852 C 103.6560897827148 60.37622833251953 103.6560516357422 60.3764762878418 103.6558303833008 60.37788391113281 C 103.6539611816406 60.38966369628906 103.6521987915039 60.40073776245117 103.6503295898438 60.41251754760742 C 103.6498794555664 60.41532897949219 103.6494827270508 60.4178352355957 103.6490325927734 60.42064666748047 C 103.6474227905273 60.43074035644531 103.6455154418945 60.44268035888672 103.6439056396484 60.45277404785156 C 103.6436767578125 60.45417785644531 103.6431350708008 60.45756912231445 103.6429138183594 60.4589729309082 C 103.6410293579102 60.47074890136719 103.6391525268555 60.48245239257812 103.6372528076172 60.49422073364258 C 103.6372528076172 60.49422073364258 103.6367263793945 60.49753189086914 103.6367263793945 60.49753189086914 C 103.6323928833008 60.52444076538086 103.6282730102539 60.54994964599609 103.6239013671875 60.57684326171875 C 103.6236724853516 60.5782470703125 103.6237411499023 60.57784271240234 103.6235122680664 60.57924652099609 C 103.6215972900391 60.59101104736328 103.6196212768555 60.6031494140625 103.6177062988281 60.61491394042969 C 103.6172409057617 60.61772155761719 103.6170425415039 60.61895370483398 103.616584777832 60.62176132202148 C 103.6149368286133 60.63184356689453 103.6129302978516 60.64411163330078 103.6112747192383 60.65419006347656 C 103.6110458374023 60.65559387207031 103.6103668212891 60.65972900390625 103.6101379394531 60.6611328125 C 103.6082077026367 60.67289352416992 103.6063003540039 60.68451309204102 103.6043548583984 60.69626998901367 C 103.6043548583984 60.69626998901367 103.6038970947266 60.69909286499023 103.6038970947266 60.69909286499023 C 103.5972442626953 60.73939895629883 103.5910034179688 60.7769889831543 103.5842666625977 60.81726455688477 C 103.5838012695312 60.820068359375 103.5838928222656 60.81950378417969 103.5834197998047 60.82230758666992 C 103.5817337036133 60.83237838745117 103.5794067382812 60.84626007080078 103.5777206420898 60.85632705688477 C 103.5774841308594 60.85773086547852 103.5769500732422 60.86087417602539 103.5767211914062 60.86227416992188 C 103.5750274658203 60.87234115600586 103.5727005004883 60.88613510131836 103.5709991455078 60.89619827270508 C 103.5707626342773 60.89759826660156 103.5703964233398 60.8997802734375 103.5701599121094 60.90118408203125 C 103.563362121582 60.94143676757812 103.5571060180664 60.97817993164062 103.5502166748047 61.01840591430664 C 103.5497360229492 61.02120590209961 103.5496978759766 61.02141952514648 103.5492172241211 61.02421951293945 C 103.547492980957 61.03427505493164 103.5454635620117 61.04609680175781 103.5437393188477 61.05615234375 C 103.5432510375977 61.05895233154297 103.5427398681641 61.06192779541016 103.5422592163086 61.06472778320312 C 103.54052734375 61.07477951049805 103.5384826660156 61.08663940429688 103.5367431640625 61.09668731689453 C 103.5364990234375 61.09808731079102 103.5359573364258 61.10125732421875 103.5357131958008 61.10265731811523 C 103.5310745239258 61.12945938110352 103.5267715454102 61.15421676635742 103.5220947265625 61.18100357055664 C 103.5220947265625 61.18100357055664 103.5218353271484 61.18248748779297 103.5218353271484 61.18248748779297 C 103.5197906494141 61.19421005249023 103.5175628662109 61.20693588256836 103.515510559082 61.21865081787109 C 103.515022277832 61.22145080566406 103.5147018432617 61.22328186035156 103.5142059326172 61.22607803344727 C 103.5124435424805 61.23612213134766 103.5103149414062 61.24824523925781 103.508544921875 61.25828552246094 C 103.508056640625 61.26108169555664 103.5078811645508 61.26205062866211 103.5073928833008 61.26484680175781 C 103.5056228637695 61.27488708496094 103.503547668457 61.28664016723633 103.5017700195312 61.29667663574219 C 103.5015182495117 61.29807662963867 103.5006713867188 61.30286026000977 103.5004272460938 61.30426025390625 C 103.4980621337891 61.31764221191406 103.4961929321289 61.32816696166992 103.4938125610352 61.34154510498047 C 103.4938125610352 61.34154510498047 103.4937286376953 61.34199523925781 103.4937286376953 61.34199523925781 C 103.4913558959961 61.35537719726562 103.489128112793 61.36784744262695 103.4867401123047 61.3812255859375 C 103.4864883422852 61.38262176513672 103.4861221313477 61.38467407226562 103.4858779907227 61.38607025146484 C 103.4840850830078 61.39610290527344 103.4818344116211 61.40864944458008 103.4800338745117 61.41867828369141 C 103.4795379638672 61.42147064208984 103.4787673950195 61.42575454711914 103.4782638549805 61.42854690551758 C 103.4764633178711 61.43857574462891 103.4748916625977 61.44733047485352 103.4730834960938 61.45735549926758 C 103.4725799560547 61.46014785766602 103.4718627929688 61.46411514282227 103.4713592529297 61.4669075012207 C 103.4695510864258 61.47693252563477 103.4674758911133 61.48842239379883 103.4656677246094 61.49844741821289 C 103.4654083251953 61.49984359741211 103.4648818969727 61.50278472900391 103.4646301269531 61.50418090820312 C 103.4573669433594 61.54427719116211 103.4507446289062 61.58059692382812 103.4433975219727 61.62065887451172 C 103.4431381225586 61.62205505371094 103.4425735473633 61.62515258789062 103.4423141479492 61.62654876708984 C 103.4404754638672 61.63656616210938 103.4382171630859 61.64884948730469 103.4363708496094 61.65886306762695 C 103.4358596801758 61.66165161132812 103.4354019165039 61.66413497924805 103.4348907470703 61.66692352294922 C 103.4330444335938 61.67693710327148 103.4312286376953 61.68674850463867 103.4293746948242 61.69675827026367 C 103.4288635253906 61.69954681396484 103.4282073974609 61.70307540893555 103.4276962280273 61.70586013793945 C 103.4255294799805 61.7175407409668 103.4230804443359 61.73075103759766 103.4209060668945 61.74242782592773 C 103.4209060668945 61.74242782592773 103.4208297729492 61.74286651611328 103.4208297729492 61.74286651611328 C 103.4158630371094 61.76955795288086 103.4113159179688 61.79394149780273 103.4063110351562 61.82061767578125 C 103.4060516357422 61.8220100402832 103.4052734375 61.82612609863281 103.4050140380859 61.82751846313477 C 103.4031372070312 61.83752059936523 103.4010772705078 61.84849166870117 103.3991928100586 61.85849380493164 C 103.3986663818359 61.86127853393555 103.3980102539062 61.86477661132812 103.3974838256836 61.86756134033203 C 103.3955993652344 61.8775634765625 103.3935470581055 61.88844680786133 103.3916549682617 61.89844512939453 C 103.3911285400391 61.90122985839844 103.3909149169922 61.90234375 103.3903884887695 61.90512847900391 C 103.38818359375 61.91679000854492 103.3859786987305 61.92840576171875 103.3837661743164 61.94006729125977 C 103.3835067749023 61.94145965576172 103.3833694458008 61.94215393066406 103.3831100463867 61.94354629516602 C 103.378044128418 61.97019958496094 103.3735275268555 61.99386978149414 103.3684234619141 62.0205078125 C 103.3681564331055 62.02190017700195 103.3673706054688 62.02601623535156 103.3671035766602 62.02740859985352 C 103.3651885986328 62.03739547729492 103.3628463745117 62.04959487915039 103.3609237670898 62.0595817565918 C 103.3603897094727 62.06236267089844 103.3601455688477 62.06363677978516 103.3596115112305 62.0664176940918 C 103.3576889038086 62.0764045715332 103.3554000854492 62.0882568359375 103.3534698486328 62.09823989868164 C 103.3529357910156 62.10102081298828 103.3526763916016 62.10237121582031 103.3521347045898 62.10515213012695 C 103.3495635986328 62.11846542358398 103.3477325439453 62.1279296875 103.3451538085938 62.14123916625977 C 103.3451538085938 62.14123916625977 103.3448181152344 62.14294815063477 103.3448181152344 62.14294815063477 C 103.3396530151367 62.1695671081543 103.3348388671875 62.19427490234375 103.3296356201172 62.22087860107422 C 103.3293609619141 62.22226715087891 103.3288879394531 62.22468566894531 103.32861328125 62.22607421875 C 103.3266677856445 62.23604965209961 103.3242111206055 62.24856948852539 103.3222503662109 62.258544921875 C 103.3217086791992 62.26132202148438 103.3211441040039 62.2641716003418 103.3206024169922 62.26694869995117 C 103.3186416625977 62.27692413330078 103.3165130615234 62.28772354125977 103.3145446777344 62.29769515991211 C 103.3139953613281 62.30047225952148 103.3136825561523 62.30206298828125 103.3131332397461 62.30484008789062 C 103.311164855957 62.3148078918457 103.3085784912109 62.32791900634766 103.3066024780273 62.33788681030273 C 103.3063278198242 62.33927536010742 103.305793762207 62.34197616577148 103.3055191040039 62.34336471557617 C 103.3002548217773 62.36994552612305 103.2956085205078 62.39330673217773 103.2902984619141 62.41987228393555 C 103.2897491455078 62.42264556884766 103.2895660400391 62.42355346679688 103.2890090942383 62.42633056640625 C 103.2870178222656 62.4362907409668 103.2845840454102 62.44847106933594 103.282585144043 62.45843124389648 C 103.2823028564453 62.45981597900391 103.281364440918 62.46449661254883 103.2810897827148 62.46588134765625 C 103.2790908813477 62.4758415222168 103.2770080566406 62.4862060546875 103.2750015258789 62.49616241455078 C 103.2744445800781 62.49893569946289 103.2738037109375 62.50212097167969 103.2732467651367 62.5048942565918 C 103.271240234375 62.51485061645508 103.2686538696289 62.52766418457031 103.2666473388672 62.53761672973633 C 103.2663650512695 62.53900527954102 103.2659606933594 62.541015625 103.2656784057617 62.54240417480469 C 103.2603073120117 62.56894683837891 103.2555465698242 62.59243392944336 103.2501373291016 62.61896514892578 C 103.2495727539062 62.62173461914062 103.2491760253906 62.62367630004883 103.2486114501953 62.62644577026367 C 103.24658203125 62.63639450073242 103.2446823120117 62.64568328857422 103.2426528930664 62.6556282043457 C 103.2417984008789 62.65978240966797 103.241081237793 62.66327667236328 103.240234375 62.66743469238281 C 103.2381973266602 62.6773796081543 103.2366638183594 62.68487548828125 103.234619140625 62.69482040405273 C 103.2340469360352 62.69758987426758 103.2333068847656 62.70121002197266 103.2327346801758 62.7039794921875 C 103.2306976318359 62.71392059326172 103.2281875610352 62.72608947753906 103.2261352539062 62.73603057861328 C 103.2255706787109 62.73880004882812 103.2255554199219 62.73885726928711 103.224983215332 62.74162673950195 C 103.2195205688477 62.76813507080078 103.2146911621094 62.79145812988281 103.2091827392578 62.81795120239258 C 103.2086029052734 62.82072067260742 103.2084121704102 62.8216438293457 103.2078399658203 62.82440948486328 C 103.2057723999023 62.83434677124023 103.2032165527344 62.84661483764648 103.2011413574219 62.85654830932617 C 103.2008514404297 62.85792922973633 103.1999435424805 62.86230087280273 103.1996536254883 62.86368560791016 C 103.1975784301758 62.87361526489258 103.195182800293 62.88506317138672 103.1931076049805 62.89499282836914 C 103.1925277709961 62.89775466918945 103.1921997070312 62.89931488037109 103.1916198730469 62.90208053588867 C 103.1895370483398 62.91201019287109 103.1865921020508 62.92604827880859 103.1845016479492 62.93597412109375 C 103.184211730957 62.93735885620117 103.1839599609375 62.9385871887207 103.1836700439453 62.93996810913086 C 103.1781005859375 62.96643829345703 103.1728439331055 62.99130630493164 103.167236328125 63.01776123046875 C 103.1669464111328 63.01914215087891 103.1670761108398 63.01853179931641 103.1667785644531 63.01991271972656 C 103.1639785766602 63.03314208984375 103.1619033813477 63.04289627075195 103.1590957641602 63.05612182617188 C 103.1587982177734 63.05750274658203 103.1584320068359 63.0592155456543 103.1581420898438 63.06059646606445 C 103.1556777954102 63.07216644287109 103.1530151367188 63.08463668823242 103.1505508422852 63.0962028503418 C 103.1502532958984 63.09758377075195 103.1503143310547 63.09730911254883 103.150016784668 63.09869003295898 C 103.1471939086914 63.11191177368164 103.1448516845703 63.12284088134766 103.1420211791992 63.13605880737305 C 103.1420211791992 63.13605880737305 103.1416397094727 63.13782501220703 103.1416397094727 63.13782501220703 C 103.1359710693359 63.16426086425781 103.1304931640625 63.18970489501953 103.1247863769531 63.21612548828125 C 103.1244888305664 63.21750259399414 103.1246643066406 63.21669387817383 103.1243667602539 63.21807479858398 C 103.1215133666992 63.23128509521484 103.1194686889648 63.24071884155273 103.1166076660156 63.25392150878906 C 103.1160049438477 63.25667953491211 103.1158752441406 63.25730133056641 103.1152725219727 63.26005935668945 C 103.1131210327148 63.26996231079102 103.1107406616211 63.28093719482422 103.1085815429688 63.29084014892578 C 103.1079864501953 63.29359817504883 103.1072616577148 63.29692840576172 103.1066589355469 63.2996826171875 C 103.1044998168945 63.30958557128906 103.1016159057617 63.32283401489258 103.0994491577148 63.33273315429688 C 103.0991516113281 63.33411026000977 103.0989456176758 63.33504104614258 103.0986480712891 63.33641815185547 C 103.0928802490234 63.36281585693359 103.0873413085938 63.38804244995117 103.0815353393555 63.41442489624023 C 103.0815353393555 63.41442489624023 103.0813598632812 63.41520690917969 103.0813598632812 63.41520690917969 C 103.0788192749023 63.42675018310547 103.0759124755859 63.43992233276367 103.0733642578125 63.45146179199219 C 103.07275390625 63.45421600341797 103.0723876953125 63.45587158203125 103.0717849731445 63.45862579345703 C 103.0695953369141 63.46851348876953 103.0669097900391 63.48064422607422 103.0647201538086 63.49053192138672 C 103.0644149780273 63.49190902709961 103.0637817382812 63.49477005004883 103.0634765625 63.49614715576172 C 103.0609130859375 63.50768280029297 103.0584106445312 63.51893997192383 103.0558471679688 63.53047180175781 C 103.0555419921875 63.5318489074707 103.0552597045898 63.53310394287109 103.0549545288086 63.53448104858398 C 103.0490875244141 63.56084060668945 103.0435333251953 63.5856819152832 103.0376281738281 63.61202621459961 C 103.0376281738281 63.61202621459961 103.0373458862305 63.61328125 103.0373458862305 63.61328125 C 103.0343933105469 63.6264533996582 103.0319442749023 63.63733673095703 103.0289840698242 63.65050506591797 C 103.0286712646484 63.65187835693359 103.0284423828125 63.65290832519531 103.0281295776367 63.6542854309082 C 103.0255355834961 63.66580581665039 103.0232162475586 63.67607498168945 103.0206146240234 63.68759536743164 C 103.0199966430664 63.69034576416016 103.0196762084961 63.6917724609375 103.0190505981445 63.69452285766602 C 103.0168228149414 63.70439529418945 103.0137710571289 63.71786499023438 103.0115356445312 63.72773742675781 C 103.0112228393555 63.72911071777344 103.0108337402344 63.7308349609375 103.0105209350586 63.73220825195312 C 103.0015716552734 63.77169036865234 102.9933547973633 63.80773162841797 102.9843139648438 63.8471794128418 C 102.9836883544922 63.84992599487305 102.9835968017578 63.85032653808594 102.9829635620117 63.85307312011719 C 102.9807052612305 63.86293411254883 102.9779205322266 63.87506103515625 102.9756546020508 63.88492202758789 C 102.9750213623047 63.88766860961914 102.9746627807617 63.88922882080078 102.9740295410156 63.89197540283203 C 102.9717636108398 63.90183258056641 102.9691314697266 63.91323471069336 102.9668579101562 63.92309188842773 C 102.9665451049805 63.92446517944336 102.965446472168 63.9292106628418 102.9651336669922 63.93058395385742 C 102.9564056396484 63.96836471557617 102.9473648071289 64.00731658935547 102.9385604858398 64.04506683349609 C 102.9382400512695 64.04643249511719 102.9380035400391 64.04744720458984 102.9376831054688 64.04882049560547 C 102.9353866577148 64.05867004394531 102.9321517944336 64.07249450683594 102.9298477172852 64.08233642578125 C 102.9292068481445 64.08507537841797 102.9289855957031 64.08603668212891 102.9283447265625 64.08877563476562 C 102.925651550293 64.10026550292969 102.9229965209961 64.11160278320312 102.920295715332 64.12307739257812 C 102.9199752807617 64.12445068359375 102.919921875 64.12466430664062 102.9196014404297 64.12603759765625 C 102.9103546142578 64.1654052734375 102.9016952514648 64.20207214355469 102.8923568725586 64.24140930175781 C 102.8920288085938 64.24278259277344 102.8914413452148 64.2452392578125 102.8911209106445 64.24661254882812 C 102.8883895874023 64.25808715820312 102.8858871459961 64.26863098144531 102.8831481933594 64.28010559082031 C 102.8828277587891 64.28147125244141 102.8823928833008 64.28329467773438 102.8820648193359 64.28466796875 C 102.8793334960938 64.296142578125 102.8765487670898 64.30780029296875 102.8738098144531 64.31926727294922 C 102.8734817504883 64.32063293457031 102.8732147216797 64.32174682617188 102.8728866577148 64.3231201171875 C 102.8634872436523 64.3624267578125 102.8544464111328 64.40005493164062 102.8449554443359 64.4393310546875 C 102.8449554443359 64.4393310546875 102.8446960449219 64.44039916992188 102.8446960449219 64.44039916992188 C 102.8419342041016 64.45185852050781 102.8389358520508 64.4642333984375 102.8361587524414 64.47567749023438 C 102.8355026245117 64.47841644287109 102.8352127075195 64.4796142578125 102.8345489501953 64.48234558105469 C 102.8321685791016 64.49215698242188 102.8291625976562 64.50454711914062 102.826774597168 64.51435852050781 C 102.8261108398438 64.51709747314453 102.8259735107422 64.51766967773438 102.8253021240234 64.52040100097656 C 102.8157577514648 64.55965423583984 102.806999206543 64.59547424316406 102.79736328125 64.63468933105469 C 102.7970275878906 64.63606262207031 102.7967681884766 64.63712310791016 102.7964324951172 64.63848876953125 C 102.7936248779297 64.64993286132812 102.7906875610352 64.66184234619141 102.7878723144531 64.67327880859375 C 102.7875366210938 64.67464447021484 102.7872924804688 64.67563629150391 102.7869567871094 64.677001953125 C 102.7837295532227 64.69007110595703 102.7815399169922 64.69894409179688 102.7783126831055 64.71200561523438 C 102.7779693603516 64.71337890625 102.7777404785156 64.71430969238281 102.7774047851562 64.71566772460938 C 102.767707824707 64.75486755371094 102.7584075927734 64.79228210449219 102.7486267089844 64.83143615722656 C 102.7486267089844 64.83143615722656 102.7482681274414 64.83286285400391 102.7482681274414 64.83286285400391 C 102.7454147338867 64.84428405761719 102.7424163818359 64.85626983642578 102.7395553588867 64.86769104003906 C 102.7388687133789 64.87041473388672 102.7384719848633 64.87200927734375 102.73779296875 64.87472534179688 C 102.7353363037109 64.884521484375 102.7320404052734 64.89763641357422 102.7295837402344 64.90742492675781 C 102.7292404174805 64.90878295898438 102.7288360595703 64.91037750244141 102.7284927368164 64.9117431640625 C 102.7186508178711 64.95088195800781 102.7094650268555 64.98722839355469 102.6995391845703 65.02632904052734 C 102.6991882324219 65.02769470214844 102.698844909668 65.02904510498047 102.6985015869141 65.03041076660156 C 102.6956024169922 65.04180908203125 102.692756652832 65.05299377441406 102.6898574829102 65.06439208984375 C 102.6895065307617 65.06575012207031 102.6890029907227 65.06772613525391 102.6886596679688 65.069091796875 C 102.686164855957 65.078857421875 102.6824798583984 65.09330749511719 102.6799850463867 65.10308074951172 C 102.6796340942383 65.10443878173828 102.6792373657227 65.10600280761719 102.6788864135742 65.10736083984375 C 102.6655731201172 65.15946197509766 102.6531829833984 65.20761108398438 102.6397094726562 65.25965118408203 C 102.6393585205078 65.26100921630859 102.6387329101562 65.26341247558594 102.6383819580078 65.2647705078125 C 102.6354293823242 65.27615356445312 102.6325378417969 65.28732299804688 102.6295776367188 65.2987060546875 C 102.6292266845703 65.30006408691406 102.6289749145508 65.301025390625 102.6286239624023 65.30238342285156 C 102.625244140625 65.31538391113281 102.6224899291992 65.32598876953125 102.6191024780273 65.3389892578125 C 102.6187438964844 65.34034729003906 102.619140625 65.33885192871094 102.618782043457 65.3402099609375 C 102.6120071411133 65.3662109375 102.6053009033203 65.391845703125 102.5984878540039 65.41783905029297 C 102.5984878540039 65.41783905029297 102.5984268188477 65.41806030273438 102.5984268188477 65.41806030273438 C 102.5950164794922 65.43105316162109 102.591926574707 65.44282531738281 102.588508605957 65.455810546875 C 102.5881500244141 65.45716857910156 102.5882186889648 65.45692443847656 102.5878601074219 65.45828247070312 C 102.5848693847656 65.46965026855469 102.5816650390625 65.4818115234375 102.5786666870117 65.49317932128906 C 102.5783081054688 65.49453735351562 102.5777893066406 65.49650573730469 102.5774307250977 65.49786376953125 C 102.563720703125 65.5498046875 102.5510482788086 65.59749603271484 102.5371856689453 65.64938354492188 C 102.5368194580078 65.65073394775391 102.5361328125 65.6533203125 102.5357666015625 65.65467834472656 C 102.5327301025391 65.66603088378906 102.5296783447266 65.67744445800781 102.5266342163086 65.68878173828125 C 102.5262756347656 65.69013977050781 102.5262069702148 65.69038391113281 102.5258483886719 65.69174194335938 C 102.5154190063477 65.73063659667969 102.5053176879883 65.76812744140625 102.4948043823242 65.80699157714844 C 102.4944381713867 65.80834197998047 102.4949951171875 65.80625915527344 102.49462890625 65.8076171875 C 102.4911270141602 65.82057189941406 102.4882354736328 65.83122253417969 102.4847183227539 65.84417724609375 C 102.4843521118164 65.84553527832031 102.4838790893555 65.84727478027344 102.483512878418 65.84862518310547 C 102.4808807373047 65.85833740234375 102.4770431518555 65.87245178222656 102.4743957519531 65.88215637207031 C 102.4740295410156 65.88351440429688 102.4734497070312 65.88564300537109 102.4730834960938 65.88699340820312 C 102.4695587158203 65.89994049072266 102.4667510986328 65.91023254394531 102.4632110595703 65.92317199707031 C 102.4632110595703 65.92317199707031 102.4630279541016 65.92385101318359 102.4630279541016 65.92385101318359 C 102.4524230957031 65.96267700195312 102.442138671875 66.00017547607422 102.4314498901367 66.03897094726562 C 102.4314498901367 66.03897094726562 102.4306259155273 66.04193878173828 102.4306259155273 66.04193878173828 C 102.4270629882812 66.05487060546875 102.4246063232422 66.06378173828125 102.421028137207 66.07670593261719 C 102.420654296875 66.07805633544922 102.4202728271484 66.07943725585938 102.4198989868164 66.08078002929688 C 102.4163284301758 66.09371185302734 102.4136581420898 66.10335540771484 102.4100723266602 66.11627197265625 C 102.4100723266602 66.11627197265625 102.4095458984375 66.11819458007812 102.4095458984375 66.11819458007812 C 102.398796081543 66.15695953369141 102.3882675170898 66.19474792480469 102.3774337768555 66.23347473144531 C 102.3774337768555 66.23347473144531 102.3771133422852 66.23460388183594 102.3771133422852 66.23460388183594 C 102.3735046386719 66.24751281738281 102.3705139160156 66.2581787109375 102.3668899536133 66.27108764648438 C 102.3665161132812 66.27243041992188 102.3664398193359 66.27268981933594 102.3660659790039 66.27404022216797 C 102.3624420166016 66.28694152832031 102.3593978881836 66.29776763916016 102.3557662963867 66.3106689453125 C 102.3557662963867 66.3106689453125 102.3554992675781 66.31163787841797 102.3554992675781 66.31163787841797 C 102.344596862793 66.350341796875 102.3343658447266 66.38653564453125 102.3233871459961 66.42521667480469 C 102.3226165771484 66.42790222167969 102.3224182128906 66.42861938476562 102.3216552734375 66.43130493164062 C 102.3189086914062 66.44097900390625 102.3153381347656 66.45352172851562 102.3125839233398 66.46318817138672 C 102.3118209838867 66.46588134765625 102.3118057250977 66.46592712402344 102.31103515625 66.46862030029297 C 102.2968063354492 66.5185546875 102.2820434570312 66.57010650634766 102.2676696777344 66.61997985839844 C 102.2672805786133 66.62132263183594 102.2675476074219 66.62039184570312 102.2671585083008 66.62173461914062 C 102.2634506225586 66.63461303710938 102.2605972290039 66.64448547363281 102.2568817138672 66.6573486328125 C 102.2564926147461 66.65869140625 102.2561798095703 66.65975952148438 102.2557907104492 66.66110229492188 C 102.2520751953125 66.67397308349609 102.2492523193359 66.6837158203125 102.2455291748047 66.69657897949219 C 102.2451400756836 66.69792175292969 102.2453918457031 66.69703674316406 102.245002746582 66.69837951660156 C 102.2338180541992 66.73696899414062 102.2227935791016 66.77482604980469 102.2115249633789 66.81336975097656 C 102.2115249633789 66.81336975097656 102.2114181518555 66.81373596191406 102.2114181518555 66.81373596191406 C 102.2076644897461 66.82658386230469 102.2042236328125 66.83830261230469 102.2004623413086 66.85115051269531 C 102.2004623413086 66.85115051269531 102.1999282836914 66.85295867919922 102.1999282836914 66.85295867919922 C 102.196159362793 66.86579895019531 102.1929626464844 66.87669372558594 102.1891860961914 66.88953399658203 C 102.1887969970703 66.890869140625 102.1891250610352 66.88974761962891 102.1887283325195 66.89109039306641 C 102.1773986816406 66.92961120605469 102.1662445068359 66.96737670898438 102.1548309326172 67.00586700439453 C 102.1548309326172 67.00586700439453 102.1546401977539 67.00650024414062 102.1546401977539 67.00650024414062 C 102.1508331298828 67.01932525634766 102.1476821899414 67.02995300292969 102.1438674926758 67.04277038574219 C 102.1434707641602 67.04411315917969 102.1431503295898 67.04518890380859 102.1427459716797 67.04652404785156 C 102.1389312744141 67.05935668945312 102.135856628418 67.06969451904297 102.1320266723633 67.08251190185547 C 102.1320266723633 67.08251190185547 102.1317977905273 67.08328247070312 102.1317977905273 67.08328247070312 C 102.0973739624023 67.19866943359375 102.06298828125 67.3125 102.0277938842773 67.42755126953125 C 102.0273818969727 67.42887878417969 102.0274200439453 67.42875671386719 102.0270156860352 67.43008422851562 C 102.0231018066406 67.44287109375 102.0199890136719 67.45303344726562 102.0160675048828 67.46581268310547 C 102.0160675048828 67.46581268310547 102.0154800415039 67.46772766113281 102.0154800415039 67.46772766113281 C 101.9998016357422 67.51884460449219 101.9848327636719 67.56736755371094 101.968994140625 67.61842346191406 C 101.9685821533203 67.6197509765625 101.9680862426758 67.62135314941406 101.9676742553711 67.6226806640625 C 101.9647064208984 67.63225555419922 101.9604721069336 67.64588928222656 101.9574966430664 67.65545654296875 C 101.9566650390625 67.65811920166016 101.9567794799805 67.65776824951172 101.9559478759766 67.66043090820312 C 101.940071105957 67.71146392822266 101.9249877929688 67.75970458984375 101.9089584350586 67.8106689453125 C 101.9085388183594 67.81200408935547 101.9087448120117 67.81136322021484 101.9083251953125 67.81269836425781 C 101.9043197631836 67.825439453125 101.9008178710938 67.8365478515625 101.8968048095703 67.84928131103516 C 101.8968048095703 67.84928131103516 101.8965682983398 67.85003662109375 101.8965682983398 67.85003662109375 C 101.880500793457 67.90098571777344 101.8647842407227 67.95057678222656 101.8485717773438 68.00146484375 C 101.84814453125 68.00279235839844 101.8482131958008 68.00257110595703 101.8477935791016 68.00389862060547 C 101.8437347412109 68.01661682128906 101.8404769897461 68.02684020996094 101.8364105224609 68.03955841064453 C 101.8364105224609 68.03955841064453 101.8358459472656 68.04133605957031 101.8358459472656 68.04133605957031 C 101.8195877075195 68.09219360351562 101.8036422729492 68.14183044433594 101.787239074707 68.192626953125 C 101.787239074707 68.192626953125 101.7868499755859 68.19384765625 101.7868499755859 68.19384765625 C 101.7827453613281 68.20654296875 101.779167175293 68.21760559082031 101.7750549316406 68.23030090332031 C 101.7746276855469 68.23162841796875 101.7749710083008 68.23056030273438 101.774543762207 68.23188781738281 C 101.7539901733398 68.29535675048828 101.7336807250977 68.357666015625 101.712890625 68.42103576660156 C 101.7124557495117 68.42235565185547 101.7130813598633 68.42045593261719 101.712646484375 68.42177581787109 C 101.6960144042969 68.47247314453125 101.6794509887695 68.52268981933594 101.6626663208008 68.57331085205078 C 101.6626663208008 68.57331085205078 101.6625671386719 68.57362365722656 101.6625671386719 68.57362365722656 C 101.5115203857422 69.02922058105469 101.3546524047852 69.48123931884766 101.1914749145508 69.93117523193359 C 101.1910018920898 69.93247985839844 101.1914825439453 69.93116760253906 101.1910095214844 69.93247985839844 C 101.168342590332 69.99496459960938 101.1458892822266 70.0565185546875 101.1229934692383 70.118896484375 C 101.1225128173828 70.12020111083984 101.1233139038086 70.11802673339844 101.1228332519531 70.11933135986328 C 101.1182556152344 70.13180541992188 101.1139678955078 70.14347076416016 101.109375 70.15594482421875 C 101.109375 70.15594482421875 101.1090316772461 70.15689086914062 101.1090316772461 70.15689086914062 C 101.0447998046875 70.33148193359375 100.9798126220703 70.50521850585938 100.9137725830078 70.67893981933594 C 100.9137725830078 70.67893981933594 100.9137191772461 70.67906188964844 100.9137191772461 70.67906188964844 C 100.385368347168 72.06880187988281 99.79936218261719 73.42999267578125 99.15853118896484 74.75993347167969 C 99.15853118896484 74.75993347167969 99.15849304199219 74.760009765625 99.15849304199219 74.760009765625 C 92.66435241699219 88.23753356933594 80.54435729980469 98.494384765625 65.84550476074219 102.4843521118164 L 52.74762725830078 54.23036575317383 C 52.76313018798828 54.22618103027344 54.30112838745117 53.76361846923828 54.30112838745117 52.15055465698242 C 54.30112838745117 50.96474075317383 53.33638000488281 49.99999237060547 52.15056610107422 49.99999237060547 L 52.15056610107422 -7.62939453125e-06 C 52.15056610107422 -7.62939453125e-06 52.15056610107422 -7.62939453125e-06 52.15056610107422 -7.62939453125e-06 Z" stroke="none" fill="#e2f864"/></g></svg>