<svg xmlns="http://www.w3.org/2000/svg" xmlns:xlink="http://www.w3.org/1999/xlink" width="15" height="15" viewBox="0 0 15 15"><defs><clipPath id="a"><rect width="3.103" height="6.926" fill="#fff"/></clipPath></defs><g transform="translate(-1064 -300)"><circle cx="7.5" cy="7.5" r="7.5" transform="translate(1064 300)" fill="#e2f864"/><g transform="translate(1069.949 304.037)"><g clip-path="url(#a)"><path d="M1.975,873.959c-.057.376.188.465.454.486a1.355,1.355,0,0,0,.6-.158.009.009,0,0,1,.012.01l-.087.405a.028.028,0,0,1-.017.02,3.542,3.542,0,0,1-1.731.318,1,1,0,0,1-.721-1.26c.054-.309.524-1.981.581-2.357s-.188-.465-.454-.486a1.353,1.353,0,0,0-.6.158.009.009,0,0,1-.012-.01l.087-.405A.029.029,0,0,1,.1,870.66a3.543,3.543,0,0,1,1.731-.318,1,1,0,0,1,.721,1.26c-.054.309-.524,1.981-.581,2.357" transform="translate(0 -868.152)" fill="#fff"/><path d="M532.166.9a.9.9,0,1,1-.9-.9.9.9,0,0,1,.9.9" transform="translate(-529.063)" fill="#fff"/></g></g></g></svg>