<svg xmlns="http://www.w3.org/2000/svg" width="58.506" height="52.676" viewBox="0 0 58.506 52.676"><g transform="translate(0 0.001)"><g transform="translate(0 -0.001)"><path d="M15.76,72.345l5.931-31.359L21.773,27.2l-4.9-1.7-.9,1.754L14.9,29.64A8.921,8.921,0,0,0,14.44,35.7l.554,1.982L0,72.345Z" transform="translate(0 -19.683)" fill="#ffc89e"/><path d="M167.053,72.337l-5.931-31.359L161.04,27.2l4.9-1.706.9,1.756,1.072,2.386a8.921,8.921,0,0,1,.456,6.061l-.554,1.982L182.811,72.34H167.053Z" transform="translate(-124.305 -19.675)" fill="#ffc89e"/><g transform="translate(17.117)"><path d="M95.446,23.93l-16.392.2a3.768,3.768,0,0,1-3.814-3.723l-.2-16.392A3.768,3.768,0,0,1,78.762.2L95.154,0a3.768,3.768,0,0,1,3.814,3.723l.2,16.392A3.767,3.767,0,0,1,95.446,23.93Z" transform="translate(-75.039 0.001)" fill="#e2f864"/></g><path d="M115.13,40.607,112.2,42.3a1,1,0,0,1-1.5-.865v-6.77a1,1,0,0,1,1.5-.865l2.931,1.693,2.934,1.693a1,1,0,0,1,0,1.729Z" transform="translate(-85.448 -25.985)" fill="#fff"/><path d="M166.645,32.741a23.759,23.759,0,0,0-1.713-5.08l-.75-1.677a.211.211,0,0,0-.267-.119l-4.375,1.647a.23.23,0,0,0-.144.2,1.867,1.867,0,0,0,.566,1.508l-1.017.37a.23.23,0,0,0-.146.23c0,.059.1,1.467,1.111,1.727a2,2,0,0,0,.477,1.147,1.094,1.094,0,0,0,.744.324,1.2,1.2,0,0,0,.529,1.049,5.177,5.177,0,0,0,2.45-.153,2.652,2.652,0,0,0-.351,1.435C163.78,35.49,166.778,34.418,166.645,32.741Z" transform="translate(-122.574 -19.955)" fill="#ffc89e"/><g transform="translate(35.84 7.401)"><path d="M158.421,36.639a.207.207,0,0,1-.052-.007c-1.145-.269-1.246-1.761-1.25-1.823a.23.23,0,0,1,.153-.23l6.221-2.121a.228.228,0,1,1,.148.431L157.6,34.951c.057.342.251,1.088.878,1.236a.229.229,0,0,1-.052.452Z" transform="translate(-157.118 -32.445)" fill="#ff7e64"/></g><g transform="translate(36.515 5.56)"><path d="M161.219,28.143a.207.207,0,0,1-.052-.007,1.671,1.671,0,0,1-1.088-1.8.227.227,0,0,1,.151-.2l4.948-1.752a.229.229,0,0,1,.283.116l.849,1.782a.228.228,0,1,1-.411.2l-.76-1.6-4.6,1.629c.011.315.112,1.029.737,1.177a.227.227,0,0,1,.169.274A.232.232,0,0,1,161.219,28.143Z" transform="translate(-160.075 -24.373)" fill="#ff7e64"/></g><g transform="translate(37.08 9.216)"><path d="M164.012,44.342A1.281,1.281,0,0,1,163.1,44a2.2,2.2,0,0,1-.55-1.419.226.226,0,0,1,.157-.219l5.929-1.946a.228.228,0,1,1,.141.433l-5.758,1.889a1.594,1.594,0,0,0,.4.931.846.846,0,0,0,.65.219.228.228,0,1,1,.018.456C164.06,44.342,164.035,44.342,164.012,44.342Z" transform="translate(-162.55 -40.4)" fill="#ff7e64"/></g><g transform="translate(38.475 11.322)"><path d="M171.392,53.909a.227.227,0,0,1-.226-.2,1.791,1.791,0,0,1,.228-1.166,3.611,3.611,0,0,1-2.14.036,1.3,1.3,0,0,1-.547-1.449.233.233,0,0,1,.16-.162l4.786-1.328a.228.228,0,0,1,.121.44l-4.647,1.289a.807.807,0,0,0,.36.814,5.031,5.031,0,0,0,2.58-.3.228.228,0,0,1,.178.417,1.347,1.347,0,0,0-.625,1.344.229.229,0,0,1-.2.255A.073.073,0,0,1,171.392,53.909Z" transform="translate(-168.665 -49.632)" fill="#ff7e64"/></g><path d="M63.276,32.741a23.759,23.759,0,0,1,1.713-5.08l.75-1.677a.211.211,0,0,1,.267-.119l4.375,1.647a.23.23,0,0,1,.144.2,1.867,1.867,0,0,1-.566,1.508l1.017.37a.23.23,0,0,1,.146.23c0,.059-.1,1.467-1.111,1.727a2,2,0,0,1-.477,1.147,1.094,1.094,0,0,1-.744.324,1.2,1.2,0,0,1-.529,1.049,5.177,5.177,0,0,1-2.45-.153,2.652,2.652,0,0,1,.351,1.435C66.141,35.49,63.143,34.418,63.276,32.741Z" transform="translate(-48.838 -19.955)" fill="#ffc89e"/><g transform="translate(15.992 7.404)"><path d="M75.478,36.647a.228.228,0,0,1-.052-.449c.627-.148.821-.9.878-1.236L70.259,32.9a.228.228,0,1,1,.148-.431l6.221,2.121a.227.227,0,0,1,.153.23c0,.064-.107,1.553-1.25,1.823A.2.2,0,0,1,75.478,36.647Z" transform="translate(-70.105 -32.455)" fill="#ff7e64"/></g><g transform="translate(15.74 5.565)"><path d="M74.11,28.158a.228.228,0,0,1-.052-.449c.627-.148.725-.862.737-1.177l-4.6-1.629-.76,1.6a.228.228,0,1,1-.411-.2l.849-1.782a.229.229,0,0,1,.283-.116L75.1,26.158a.224.224,0,0,1,.151.2,1.673,1.673,0,0,1-1.088,1.8Z" transform="translate(-69.001 -24.393)" fill="#ff7e64"/></g><g transform="translate(15.042 9.216)"><path d="M70.865,44.343c-.023,0-.048,0-.073,0a.229.229,0,0,1-.219-.237.233.233,0,0,1,.237-.219.838.838,0,0,0,.65-.221,1.608,1.608,0,0,0,.395-.928L66.1,40.846a.228.228,0,0,1,.141-.433l5.929,1.946a.23.23,0,0,1,.157.219A2.2,2.2,0,0,1,71.775,44,1.272,1.272,0,0,1,70.865,44.343Z" transform="translate(-65.94 -40.401)" fill="#ff7e64"/></g><g transform="translate(14.758 11.323)"><path d="M67.245,53.912a.111.111,0,0,1-.027,0,.229.229,0,0,1-.2-.255,1.349,1.349,0,0,0-.625-1.344.23.23,0,0,1-.1-.29.227.227,0,0,1,.278-.128,5.081,5.081,0,0,0,2.58.3.809.809,0,0,0,.36-.814l-4.649-1.291a.228.228,0,0,1,.121-.44l4.786,1.328a.225.225,0,0,1,.16.162,1.309,1.309,0,0,1-.547,1.449,3.611,3.611,0,0,1-2.14-.036,1.8,1.8,0,0,1,.228,1.166A.227.227,0,0,1,67.245,53.912Z" transform="translate(-64.696 -49.636)" fill="#ff7e64"/></g><g transform="translate(14.859 24.919)"><path d="M79.613,142.427l-3.814.543a8.075,8.075,0,0,1-9.1-6.839l-.214-1.512a10.109,10.109,0,0,1,8.563-11.4l.632,1.453a6.337,6.337,0,0,1,7.144,5.367l.969,6.825A4.931,4.931,0,0,1,79.613,142.427Z" transform="translate(-66.097 -120.031)" fill="#080717"/><path d="M95.084,182.831l3.207-11.15-9.61-3.061L84,182.831Z" transform="translate(-79.697 -155.074)" fill="#ffc89e"/><circle cx="3.809" cy="3.809" r="3.809" transform="matrix(0.134, -0.991, 0.991, 0.134, 3.284, 9.791)" fill="#080717"/><path d="M78.888,129.04a8.574,8.574,0,0,0-6.25,9.163,5.922,5.922,0,0,0,3.383.509,5.6,5.6,0,0,0,4.911-6.209A5.307,5.307,0,0,0,78.888,129.04Z" transform="translate(-70.89 -124.523)" fill="#080717"/><path d="M74.6,151.677a8.577,8.577,0,0,0,3.219,10.616,5.91,5.91,0,0,0,2.518-2.315,5.6,5.6,0,0,0-1.759-7.719A5.3,5.3,0,0,0,74.6,151.677Z" transform="translate(-71.899 -141.877)" fill="#080717"/><circle cx="3.809" cy="3.809" r="3.809" transform="translate(5.874 3.508) rotate(-6.246)" fill="#080717"/><circle cx="3.917" cy="3.917" r="3.917" transform="translate(9.232 8.48) rotate(-66.391)" fill="#080717"/><circle cx="3.917" cy="3.917" r="3.917" transform="translate(4.68 6.263) rotate(-53.085)" fill="#080717"/><g transform="translate(0 8.983)"><path d="M67.65,149.44a.22.22,0,0,1-.137-.046,2.155,2.155,0,0,0-2.046-.084.228.228,0,0,1-.2-.408,2.58,2.58,0,0,1,2.523.128.229.229,0,0,1,.046.319A.225.225,0,0,1,67.65,149.44Z" transform="translate(-65.139 -148.621)" fill="#080717"/></g><g transform="translate(0.349 8.071)"><path d="M68.736,146.191a2.637,2.637,0,0,1-2.032-1.223.228.228,0,1,1,.388-.242,2.158,2.158,0,0,0,1.786,1,.228.228,0,0,1,.039.454C68.857,146.187,68.8,146.191,68.736,146.191Z" transform="translate(-66.669 -144.619)" fill="#080717"/></g><path d="M87.109,134.266c-2.509-4.993-7.961-7.325-12.179-5.206-3.565,1.791-5.105,6.189-3.981,10.523-.1.014-.189.027-.285.05a2.968,2.968,0,0,0,1.1,5.826,2.946,2.946,0,0,0,1.8-.972c2.817,3.171,7.042,4.373,10.457,2.658C88.234,145.027,89.618,139.26,87.109,134.266Z" transform="translate(-67.642 -123.935)" fill="#ffc89e"/><g transform="translate(0.511 17.106)"><path d="M70.565,188.9a3.184,3.184,0,0,1-2.881-4.546.228.228,0,1,1,.413.194,2.729,2.729,0,0,0,4.517,2.968.227.227,0,1,1,.34.3,3.2,3.2,0,0,1-1.934,1.047A2.728,2.728,0,0,1,70.565,188.9Z" transform="translate(-67.377 -184.227)" fill="#ff7e64"/></g><g transform="translate(9.177 22.689)"><path d="M109.224,210.241a8.9,8.9,0,0,1-3.723-.853.229.229,0,1,1,.192-.415,7.687,7.687,0,0,0,6.773.046c.173-.087.344-.182.509-.283a.227.227,0,1,1,.237.388c-.176.107-.358.208-.541.3A7.6,7.6,0,0,1,109.224,210.241Z" transform="translate(-105.369 -208.702)" fill="#ff7e64"/></g><path d="M107.1,158.038c.251.308.614.429.81.269s.153-.538-.1-.846-.614-.429-.81-.269S106.852,157.73,107.1,158.038Z" transform="translate(-97.36 -146.199)" fill="#080717"/><path d="M128.343,146.958c.251.308.614.429.81.269s.153-.538-.1-.846-.614-.429-.81-.269S128.092,146.65,128.343,146.958Z" transform="translate(-113.754 -137.646)" fill="#080717"/><g transform="translate(7.679 9.957)"><path d="M99.03,154.751a.17.17,0,0,1-.059-.009.229.229,0,0,1-.16-.281,2.512,2.512,0,0,1,1.61-1.565.228.228,0,0,1,.135.436,2.082,2.082,0,0,0-1.3,1.248A.23.23,0,0,1,99.03,154.751Z" transform="translate(-98.803 -152.887)" fill="#080717"/></g><g transform="translate(13.207 13.571)"><path d="M123.261,170.352a.226.226,0,0,1-.226-.205.228.228,0,0,1,.2-.251c.027,0,2.623-.276,3.415-1.093a.227.227,0,0,1,.326.317c-.906.938-3.581,1.218-3.7,1.23A.078.078,0,0,1,123.261,170.352Z" transform="translate(-123.034 -168.734)" fill="#ff7e64"/></g><g transform="translate(12.217 7.231)"><path d="M121.478,145.291a.223.223,0,0,1-.162-.068l-2.557-2.591a.231.231,0,0,1-.027-.287,2.665,2.665,0,0,1,3.652-1,.228.228,0,0,1-.244.386,2.178,2.178,0,0,0-2.918.725l2.418,2.452a.228.228,0,0,1-.162.388Z" transform="translate(-118.694 -140.938)" fill="#080717"/></g><path d="M78.409,160.86l2.621,5.253a.582.582,0,0,1,0,.525h0a.581.581,0,0,1-.867.2l-3.451-2.521Z" transform="translate(-74.07 -149.085)" fill="#080717"/><g transform="translate(3.166 16.782)"><path d="M80.692,184.6a.229.229,0,0,1-.214-.148h0a2.015,2.015,0,0,0-1.277-1.191.229.229,0,1,1,.1-.447,2.443,2.443,0,0,1,1.61,1.48.226.226,0,0,1-.135.292A.245.245,0,0,1,80.692,184.6Z" transform="translate(-79.019 -182.806)" fill="#ff7e64"/></g><path d="M67.829,144.26a10.024,10.024,0,0,0-1.348,6.6L66.643,152a3.915,3.915,0,1,0,1.186-7.735Z" transform="translate(-66.097 -136.271)" fill="#080717"/></g></g></g></svg>