<svg xmlns="http://www.w3.org/2000/svg" width="14.013" height="14.013" viewBox="0 0 14.013 14.013"><path d="M19.137,20.013a10.5,10.5,0,0,1-4.72-1.168,16.2,16.2,0,0,1-7.25-7.25A10.5,10.5,0,0,1,6,6.876.864.864,0,0,1,6.876,6H9.6a.688.688,0,0,1,.477.185.86.86,0,0,1,.263.5l.525,2.452a1.4,1.4,0,0,1-.01.5.75.75,0,0,1-.2.38L8.705,11.975a16.158,16.158,0,0,0,2.442,3.153A13.5,13.5,0,0,0,14.213,17.4L16.062,15.5a1.076,1.076,0,0,1,.448-.3.9.9,0,0,1,.506-.029l2.316.506a.85.85,0,0,1,.681.837v2.627a.864.864,0,0,1-.876.876Z" transform="translate(-6 -6)" fill="#e2f864"/></svg>