<svg xmlns="http://www.w3.org/2000/svg" width="9.115" height="9.115" viewBox="0 0 9.115 9.115"><g transform="translate(-3.375 -3.375)"><path d="M9,16.663v4.382a.352.352,0,0,0,.351.351h4.908a.352.352,0,0,0,.351-.351V16.663a.352.352,0,0,0-.351-.351H9.351A.352.352,0,0,0,9,16.663Z" transform="translate(-3.872 -8.906)" fill="#797979"/><g transform="translate(3.375 3.375)"><path d="M13.835,3.375H8.226a.352.352,0,0,0-.351.351v.438a.088.088,0,0,0,.088.088H14.1a.088.088,0,0,0,.088-.088V3.726A.352.352,0,0,0,13.835,3.375Z" transform="translate(-6.473 -3.375)" fill="#797979"/><path d="M11.8,7.875H4.087a.7.7,0,0,0-.712.686v3.821a.72.72,0,0,0,.712.708h.34a.176.176,0,0,0,.175-.175V10.592a.613.613,0,0,1,.614-.614H10.65a.613.613,0,0,1,.614.614v2.323a.176.176,0,0,0,.175.175H11.8a.7.7,0,0,0,.69-.708V8.561A.682.682,0,0,0,11.8,7.875Z" transform="translate(-3.375 -6.473)" fill="#797979"/></g></g></svg>