<svg xmlns="http://www.w3.org/2000/svg" width="14" height="13.999" viewBox="0 0 14 13.999"><path d="M.169,4.987a1.425,1.425,0,0,1,.089-1.5,2.751,2.751,0,0,1,.973-.875L5.606.339a3.018,3.018,0,0,1,2.785,0l4.374,2.279a2.751,2.751,0,0,1,.973.875,1.425,1.425,0,0,1,.089,1.5,1.582,1.582,0,0,1-1.409.843H1.579a1.582,1.582,0,0,1-1.41-.845Zm13.245,7.844a1.167,1.167,0,0,0-1.167-1.167V7H11.081v4.666H9.332V7H8.165v4.666H5.832V7H4.665v4.666H2.916V7H1.749v4.666A1.167,1.167,0,0,0,.583,12.831.583.583,0,1,0,.583,14H13.414a.583.583,0,0,0,0-1.167Z" transform="translate(0.002 0.002)"/></svg>