<svg xmlns="http://www.w3.org/2000/svg" width="112" height="148" viewBox="0 0 112 148"><g transform="translate(0.418 -0.038)"><g transform="translate(-0.418 0.038)" fill="#f7f7f7" stroke="#e5e5e5" stroke-width="1"><rect width="112" height="148" rx="10" stroke="none"/><rect x="0.5" y="0.5" width="111" height="147" rx="9.5" fill="none"/></g><g transform="translate(13.481 21.569)"><g transform="translate(0.101 10.469)" fill="#fff" stroke="#e5e5e5" stroke-width="1"><rect width="85" height="22" stroke="none"/><rect x="0.5" y="0.5" width="84" height="21" fill="none"/></g><g transform="translate(0.101 0.469)" fill="#fff" stroke="#e5e5e5" stroke-width="1"><rect width="85" height="9" stroke="none"/><rect x="0.5" y="0.5" width="84" height="8" fill="none"/></g><g transform="translate(0.101 105.469)" fill="#fff" stroke="#e5e5e5" stroke-width="1"><rect width="85" height="12" stroke="none"/><rect x="0.5" y="0.5" width="84" height="11" fill="none"/></g><g transform="translate(0.101 35.469)" fill="#fff" stroke="#e5e5e5" stroke-width="1"><rect width="43" height="33" stroke="none"/><rect x="0.5" y="0.5" width="42" height="32" fill="none"/></g><g transform="translate(43.101 70.469)" fill="#fff" stroke="#e5e5e5" stroke-width="1"><rect width="42" height="33" stroke="none"/><rect x="0.5" y="0.5" width="41" height="32" fill="none"/></g><line x2="34" transform="translate(48.101 41.469)" fill="none" stroke="#e5e5e5" stroke-width="1"/><line x2="33.703" transform="translate(3.37 78.864)" fill="none" stroke="#e5e5e5" stroke-width="1"/><line x2="34" transform="translate(48.101 52.469)" fill="none" stroke="#e5e5e5" stroke-width="1"/><line x2="33.703" transform="translate(3.37 89.649)" fill="none" stroke="#e5e5e5" stroke-width="1"/><line x2="27.636" transform="translate(54.598 47.184)" fill="none" stroke="#e5e5e5" stroke-width="1"/><line x2="27.636" transform="translate(3.37 84.256)" fill="none" stroke="#e5e5e5" stroke-width="1"/><line x2="27.636" transform="translate(54.598 57.968)" fill="none" stroke="#e5e5e5" stroke-width="1"/><line x2="27.636" transform="translate(3.37 95.041)" fill="none" stroke="#e5e5e5" stroke-width="1"/></g></g></svg>