<svg xmlns="http://www.w3.org/2000/svg" width="16.794" height="17.217" viewBox="0 0 16.794 17.217"><g opacity="0.5"><path d="M16.294,2.925a2.147,2.147,0,0,0-1.652-.773H3.043L3.013,1.9A2.152,2.152,0,0,0,.877,0H.717a.717.717,0,0,0,0,1.435H.877a.717.717,0,0,1,.712.633l.987,8.393A3.587,3.587,0,0,0,6.139,13.63H13.63a.717.717,0,1,0,0-1.435H6.139a2.152,2.152,0,0,1-2.023-1.435h8.551A3.587,3.587,0,0,0,16.2,7.81l.563-3.123a2.148,2.148,0,0,0-.466-1.762Z" fill="#797979"/><circle cx="1.435" cy="1.435" r="1.435" transform="translate(3.587 14.347)" fill="#797979"/><circle cx="1.435" cy="1.435" r="1.435" transform="translate(10.761 14.347)" fill="#797979"/></g></svg>