<svg xmlns="http://www.w3.org/2000/svg" width="40.769" height="51.061" viewBox="0 0 40.769 51.061"><g transform="translate(-2029.206 3789.061)"><g transform="translate(2032.933 -3789.061)"><path d="M202.4,0h-8.945a1.96,1.96,0,0,0-1.96,1.96V8.115h12.866V1.96A1.96,1.96,0,0,0,202.4,0Z" transform="translate(-181.271)" fill="#080717"/><path d="M119.953,124.318H91.3L88.97,81.372h33.315Z" transform="translate(-88.97 -73.257)" fill="#080717"/></g><g transform="translate(2029.206 -3784.379)"><path d="M88.074,46.942H55.891A4.293,4.293,0,0,0,51.6,51.235v2.639H92.367V51.235A4.293,4.293,0,0,0,88.074,46.942Z" transform="translate(-51.598 -46.942)" fill="#e2f864"/><path d="M234.945,208.527a2.332,2.332,0,0,1-2.332-2.332v-21.67a2.332,2.332,0,0,1,4.665,0v21.67A2.332,2.332,0,0,1,234.945,208.527Z" transform="translate(-214.561 -168.704)" fill="#e2f864"/><path d="M147.82,208.527a2.333,2.333,0,0,1-2.331-2.27l-.583-21.67a2.332,2.332,0,0,1,4.663-.125l.583,21.67a2.332,2.332,0,0,1-2.269,2.394Z" transform="translate(-135.6 -168.704)" fill="#e2f864"/><path d="M316.8,208.528h-.064a2.333,2.333,0,0,1-2.269-2.394l.583-21.67a2.333,2.333,0,0,1,2.331-2.27h.064a2.333,2.333,0,0,1,2.269,2.394l-.583,21.67A2.332,2.332,0,0,1,316.8,208.528Z" transform="translate(-288.255 -168.705)" fill="#e2f864"/></g></g></svg>