<svg xmlns="http://www.w3.org/2000/svg" width="8.178" height="9.813" viewBox="0 0 8.178 9.813"><g transform="translate(-42.667)"><path d="M50.436,1.636H49.168a2.048,2.048,0,0,0-2-1.636h-.818a2.048,2.048,0,0,0-2,1.636H43.076a.409.409,0,0,0,0,.818h.409V7.769a2.047,2.047,0,0,0,2.044,2.044h2.453a2.047,2.047,0,0,0,2.044-2.044V2.453h.409a.409.409,0,0,0,0-.818ZM46.347,6.951a.409.409,0,0,1-.818,0V4.5a.409.409,0,1,1,.818,0V6.951Zm1.636,0a.409.409,0,0,1-.818,0V4.5a.409.409,0,0,1,.818,0ZM45.19,1.636A1.229,1.229,0,0,1,46.347.818h.818a1.229,1.229,0,0,1,1.157.818Z" fill="#797979"/></g></svg>