<svg xmlns="http://www.w3.org/2000/svg" width="66.368" height="52.151" viewBox="0 0 66.368 52.151"><g transform="translate(0 18.383)"><path d="M39.481,109.422H2.15A2.15,2.15,0,0,1,0,107.273V83.83a2.15,2.15,0,0,1,2.15-2.15H39.481a2.15,2.15,0,0,1,2.15,2.15v23.443A2.149,2.149,0,0,1,39.481,109.422Z" transform="translate(0 -81.68)" fill="#e3e3e3"/><circle cx="0.777" cy="0.777" r="0.777" transform="translate(1.972 1.552)" fill="#cccccd"/><circle cx="0.777" cy="0.777" r="0.777" transform="translate(4.588 1.552)" fill="#cccccd"/><circle cx="0.777" cy="0.777" r="0.777" transform="translate(7.204 1.552)" fill="#cccccd"/></g><g transform="translate(30.987)"><path d="M148.238,81.829l5.767,1.648,7.822-4.262a3.875,3.875,0,0,1,5.148,1.386l7.391,14.7a6.067,6.067,0,0,1-6.3,8.51l-28.533-3.644,4.22-15.794A3.618,3.618,0,0,1,148.238,81.829Z" transform="translate(-139.53 -61.016)" fill="#080717"/><circle cx="8.188" cy="8.188" r="8.188" transform="translate(3.24 18.203) rotate(-80.723)" fill="#080717"/><circle cx="4.537" cy="4.537" r="4.537" transform="translate(10.705 0.498) rotate(-3.147)" fill="#080717"/><g transform="translate(5.494 6.918)"><path d="M168.842,42.938a3.938,3.938,0,0,0,.857-.031l1.09,4.424-2.738,1.324-.02.011c1.364,2.367,3.187,3.818,5.192,3.818,3.442,0,6.351-4.266,7.311-10.134A13.454,13.454,0,0,0,177.084,44l-1.09-4.428a1.629,1.629,0,0,0,.757.089c1.208-.153,2.008-1.646,1.75-3.3-.238-1.532-1.348-2.667-2.474-2.534a2.163,2.163,0,0,0-1.694,1.759c-.247-2.976-2.112-5.339-4.542-5.519-2.774-.2-5.234,2.512-5.5,6.067S166.068,42.734,168.842,42.938Z" transform="translate(-164.269 -30.051)" fill="#ffc89e"/></g><path d="M176.1,33.192c-.049.038-.1.076-.149.111-2.825,1.994-7.18.751-9.723-2.776-.029-.04-.056-.08-.084-.12a5.387,5.387,0,0,1,3.091-1.777C172.045,28.138,175.6,28.1,176.1,33.192Z" transform="translate(-160.23 -21.864)" fill="#080717"/><g transform="translate(10.841 16.3)"><path d="M188.57,75.959a.222.222,0,0,1-.056-.437,5.33,5.33,0,0,0,3.36-3.094.223.223,0,1,1,.4.187,5.778,5.778,0,0,1-3.653,3.34A.433.433,0,0,1,188.57,75.959Z" transform="translate(-188.347 -72.299)" fill="#ff7e64"/></g><path d="M166.134,59.666c.118.135-.1.509-.473.833s-.779.475-.895.34.1-.509.473-.833S166.019,59.531,166.134,59.666Z" transform="translate(-159.137 -46.133)" fill="#080717"/><path d="M183.264,57.86c-.007.222-.511.391-1.128.375s-1.113-.209-1.106-.433.511-.391,1.128-.375S183.271,57.635,183.264,57.86Z" transform="translate(-171.813 -44.429)" fill="#080717"/><g transform="translate(7.837 13.993)"><path d="M175.388,64.448a.218.218,0,0,1-.115-.033.952.952,0,0,1-.453-.828l.027-1.459a.222.222,0,1,1,.444.009l-.027,1.459a.5.5,0,0,0,.242.442.223.223,0,0,1,.073.306A.232.232,0,0,1,175.388,64.448Z" transform="translate(-174.819 -61.91)" fill="#ff7e64"/></g><g transform="translate(8.501 16.725)"><path d="M178.447,75a1.437,1.437,0,0,1-.491-.093.222.222,0,1,1,.151-.418c.577.207.72-.12.724-.135a.223.223,0,1,1,.411.171A.838.838,0,0,1,178.447,75Z" transform="translate(-177.809 -74.214)" fill="#ff7e64"/></g><g transform="translate(16.403 11.309)"><path d="M213.676,52.334a.225.225,0,0,1-.218-.175,2,2,0,0,1,.213-1.59,1.862,1.862,0,0,1,1.122-.742.222.222,0,0,1,.08.438,1.429,1.429,0,0,0-.835.555,1.588,1.588,0,0,0-.147,1.244.221.221,0,0,1-.169.264A.158.158,0,0,1,213.676,52.334Z" transform="translate(-213.389 -49.823)" fill="#ff7e64"/></g><path d="M168.571,67.364c.016.262-.109.482-.28.493s-.32-.193-.335-.455.109-.482.28-.493S168.555,67.1,168.571,67.364Z" transform="translate(-161.642 -51.805)" fill="#080717"/><path d="M184.461,64.174c.016.262-.109.482-.28.493s-.32-.193-.335-.455.109-.482.28-.493S184.445,63.912,184.461,64.174Z" transform="translate(-174.003 -49.324)" fill="#080717"/></g><g transform="translate(3.909 26.685)"><path d="M30.152,134.326l-.888-.011.007-.444.888.011Zm-1.777-.022-.888-.011.007-.444.888.011Zm-1.777-.024-.888-.011.007-.444.888.011Zm-1.777-.024-.888-.011.007-.444.888.011Zm5.972,0-.107-.431a2.092,2.092,0,0,0,.724-.335l.26.36A2.55,2.55,0,0,1,30.794,134.255Zm-7.748-.024-.888-.011.007-.444.888.011Zm-1.777-.024-.888-.011.007-.444.888.011Zm-1.826-.109a2.478,2.478,0,0,1-.864-.435l.271-.351a2.052,2.052,0,0,0,.713.358Zm12.89-.955-.375-.238a2.1,2.1,0,0,0,.289-.744l.438.078A2.6,2.6,0,0,1,32.333,133.142Zm-14.393-.207a2.521,2.521,0,0,1-.322-.913l.44-.064a2.117,2.117,0,0,0,.264.753Zm14.788-1.619-.444-.007.011-.888.444.007Zm-14.684-.209L17.6,131.1l.011-.888.444.007Zm14.708-1.568-.444-.007.011-.888.444.007Zm-14.686-.209-.444-.007.011-.888.444.007Zm14.711-1.568-.444-.007.011-.888.444.007Zm-14.686-.209-.444-.007.011-.888.444.007ZM32.8,125.987l-.444-.007.011-.888.444.007Zm-14.686-.209-.444-.007.011-.888.444.007Zm14.711-1.568-.444-.007.011-.888.444.007ZM18.14,124l-.444-.007.011-.888.444.007Zm14.708-1.566-.444-.007.009-.7c0-.058,0-.115-.007-.171l.442-.036c0,.069.009.138.009.207Zm-14.684-.211-.444-.007.009-.657c0-.084.007-.169.016-.251l.442.051c-.009.069-.011.138-.013.207Zm14.029-1.43a2.044,2.044,0,0,0-.489-.631l.293-.333a2.53,2.53,0,0,1,.593.766Zm-13.767-.2-.391-.213a2.52,2.52,0,0,1,.615-.746l.282.342A2.124,2.124,0,0,0,18.426,120.6Zm12.59-.839a2.1,2.1,0,0,0-.664-.118l-.14,0,.007-.444.14,0a2.531,2.531,0,0,1,.8.142Zm-1.692-.131-.888-.011.007-.444.888.011Zm-1.777-.024-.888-.011.007-.444.888.011Zm-7.913,0-.133-.424a2.53,2.53,0,0,1,.764-.118l.184,0-.007.444-.178,0A2.079,2.079,0,0,0,19.634,119.6Zm6.136-.022-.888-.011.007-.444.888.011Zm-1.777-.024-.888-.011.007-.444.888.011Zm-1.777-.024-.888-.011.007-.444.888.011Z" transform="translate(-17.6 -119.06)" fill="#080717"/></g><g transform="translate(25.839 24.19)"><path d="M139.625,135.786l-18.972-.26a4.365,4.365,0,0,1-4.3-4.422l.26-18.972a4.364,4.364,0,0,1,4.422-4.3l18.972.26a4.364,4.364,0,0,1,4.3,4.422l-.26,18.972A4.363,4.363,0,0,1,139.625,135.786Z" transform="translate(-116.348 -107.828)" fill="#e2f864"/><circle cx="3.995" cy="3.995" r="3.995" transform="translate(4.513 11.121) rotate(-69.488)" fill="#fff"/><path d="M116.349,160.491l.058-4.306,1.963-1.91a3.666,3.666,0,0,1,5.186.071h0a3.473,3.473,0,0,0,4.91.067l7.711-7.5a4.626,4.626,0,0,1,6.54.089l1.5,1.539-.169,12.33a4.364,4.364,0,0,1-4.422,4.3l-18.972-.26A4.363,4.363,0,0,1,116.349,160.491Z" transform="translate(-116.348 -137.212)" fill="#080717"/></g><g transform="translate(27.977 21.843)"><g transform="translate(0 0)"><path d="M130.534,99.891,132,99.9l-.937-.982a2.172,2.172,0,0,0-1.372-.664h0c-.464-.044-.7.122-1.048.68l-1.672,2.958.7.133a1.442,1.442,0,0,0,1.344-.451Z" transform="translate(-126.749 -98.029)" fill="#ffc89e"/><path d="M127.161,101.5a1.614,1.614,0,0,1-.309-.029l-.7-.133a.223.223,0,0,1-.16-.124.217.217,0,0,1,.009-.2l1.672-2.958c.344-.56.646-.851,1.261-.793a2.4,2.4,0,0,1,1.512.731l.937.982a.226.226,0,0,1,.044.242.221.221,0,0,1-.2.133h0l-1.366-.011-1.457,1.612A1.685,1.685,0,0,1,127.161,101.5Zm-.617-.54.391.076a1.228,1.228,0,0,0,1.137-.382L129.6,98.97a.209.209,0,0,1,.167-.073l.942.007-.575-.6a1.955,1.955,0,0,0-1.233-.6c-.344-.031-.513.047-.837.575Z" transform="translate(-125.976 -97.258)" fill="#ff7e64"/></g><g transform="translate(1.75 0.019)"><path d="M138.679,100.273l1.741.013L139.3,99.12a2.583,2.583,0,0,0-1.628-.788h0a1.2,1.2,0,0,0-1.244.808l-1.583,4.475,1.146.067a1.508,1.508,0,0,0,1.426-.808Z" transform="translate(-134.629 -98.108)" fill="#ffc89e"/><path d="M135.311,103.142c-.033,0-.067,0-.1,0l-1.146-.067a.221.221,0,0,1-.171-.1.23.23,0,0,1-.024-.2l1.583-4.475a1.413,1.413,0,0,1,1.475-.955,2.8,2.8,0,0,1,1.768.855l1.115,1.166a.226.226,0,0,1,.044.242.221.221,0,0,1-.2.133h0l-1.6-.011-1.195,2.476A1.746,1.746,0,0,1,135.311,103.142Zm-.928-.5.851.051a1.28,1.28,0,0,0,1.215-.691l1.253-2.6a.219.219,0,0,1,.2-.124l1.215.009-.751-.786a2.366,2.366,0,0,0-1.488-.72.969.969,0,0,0-1.013.657Z" transform="translate(-133.856 -97.341)" fill="#ff7e64"/></g><g transform="translate(4.19 0.039)"><path d="M149.525,100.353l1.741.013L150.152,99.2a2.583,2.583,0,0,0-1.628-.788h0a1.2,1.2,0,0,0-1.244.808l-1.43,4.1,1.146.067a1.508,1.508,0,0,0,1.426-.808Z" transform="translate(-145.626 -98.19)" fill="#ffc89e"/><path d="M146.3,102.85c-.033,0-.067,0-.1,0l-1.146-.067a.221.221,0,0,1-.171-.1.218.218,0,0,1-.024-.2l1.43-4.1a1.409,1.409,0,0,1,1.475-.955,2.8,2.8,0,0,1,1.768.855l1.115,1.166a.226.226,0,0,1,.044.242.221.221,0,0,1-.2.133h0l-1.6-.013-1.044,2.1A1.737,1.737,0,0,1,146.3,102.85Zm-.926-.5.853.051a1.289,1.289,0,0,0,1.215-.691l1.1-2.219a.214.214,0,0,1,.2-.122l1.215.009-.751-.786a2.366,2.366,0,0,0-1.488-.72.969.969,0,0,0-1.013.657Z" transform="translate(-144.842 -97.431)" fill="#ff7e64"/></g><g transform="translate(6.596 0.052)"><path d="M160.134,100.423l1.741.013-1.115-1.166a2.583,2.583,0,0,0-1.628-.788h0a1.2,1.2,0,0,0-1.244.808l-1.2,3.553,1.146.067a1.508,1.508,0,0,0,1.426-.808Z" transform="translate(-156.465 -98.258)" fill="#ffc89e"/><path d="M157.136,102.37c-.033,0-.067,0-.1,0l-1.146-.067a.221.221,0,0,1-.171-.1.225.225,0,0,1-.027-.2l1.2-3.553a1.413,1.413,0,0,1,1.475-.957,2.8,2.8,0,0,1,1.768.855l1.115,1.166a.226.226,0,0,1,.044.242.221.221,0,0,1-.2.133h0l-1.606-.013-.813,1.559A1.718,1.718,0,0,1,157.136,102.37Zm-.931-.5.855.051a1.293,1.293,0,0,0,1.215-.688l.875-1.681a.209.209,0,0,1,.2-.12l1.215.009-.751-.786a2.366,2.366,0,0,0-1.488-.72.97.97,0,0,0-1.013.657Z" transform="translate(-155.679 -97.491)" fill="#ff7e64"/></g></g><g transform="translate(55.26 31.337)"><path d="M254.686,144.205a.222.222,0,0,1-.207-.144,4.188,4.188,0,0,0-1.026-1.341,10.308,10.308,0,0,0-4.462-2.274.223.223,0,0,1,.115-.431c4.759,1.284,5.747,3.784,5.785,3.889a.224.224,0,0,1-.129.286A.194.194,0,0,1,254.686,144.205Z" transform="translate(-248.827 -140.007)" fill="#fff"/></g><g transform="translate(49.905 27.669)"><g transform="translate(1.484 0)"><path d="M235.062,128.16l.713-.5a.954.954,0,0,0,.409-.782v-1.008a.95.95,0,0,0-.555-.866l-.939-.433a.955.955,0,0,0-.844.022l-1.455.766v1.326a.953.953,0,0,0,.469.822l1.17.691A.96.96,0,0,0,235.062,128.16Z" transform="translate(-232.17 -124.266)" fill="#ffc89e"/><path d="M233.745,127.782a1.173,1.173,0,0,1-.6-.162l-1.17-.691a1.185,1.185,0,0,1-.577-1.013V124.59a.223.223,0,0,1,.118-.2l1.455-.766a1.184,1.184,0,0,1,1.042-.027l.937.433a1.179,1.179,0,0,1,.684,1.068v1.008a1.18,1.18,0,0,1-.5.966l-.713.5A1.2,1.2,0,0,1,233.745,127.782Zm-1.9-3.06v1.193a.735.735,0,0,0,.36.631l1.17.691a.738.738,0,0,0,.791-.029l.713-.5a.736.736,0,0,0,.313-.6V125.1a.73.73,0,0,0-.426-.664l-.937-.433a.732.732,0,0,0-.648.018Z" transform="translate(-231.4 -123.494)" fill="#ff7e64"/></g><g transform="translate(0 0.844)"><path d="M229.149,132.109l-.013,1.741,1.166-1.115a2.583,2.583,0,0,0,.788-1.628h0a1.2,1.2,0,0,0-.808-1.244l-4.475-1.583-.067,1.146a1.508,1.508,0,0,0,.808,1.426Z" transform="translate(-225.511 -128.061)" fill="#ffc89e"/><path d="M228.342,133.306a.253.253,0,0,1-.089-.018.218.218,0,0,1-.133-.207l.011-1.6-2.476-1.195a1.734,1.734,0,0,1-.935-1.639l.067-1.146a.217.217,0,0,1,.1-.171.23.23,0,0,1,.2-.024l4.475,1.583a1.413,1.413,0,0,1,.955,1.475,2.8,2.8,0,0,1-.855,1.768l-1.166,1.115A.232.232,0,0,1,228.342,133.306Zm-3.127-5.483-.051.851a1.285,1.285,0,0,0,.691,1.215l2.6,1.255a.224.224,0,0,1,.127.2l-.009,1.215.786-.751a2.366,2.366,0,0,0,.72-1.488.97.97,0,0,0-.657-1.013Z" transform="translate(-224.717 -127.296)" fill="#ff7e64"/></g><g transform="translate(0.364 3.285)"><path d="M230.4,142.955l-.013,1.741,1.166-1.115a2.582,2.582,0,0,0,.788-1.628h0a1.2,1.2,0,0,0-.808-1.244l-4.1-1.43-.067,1.146a1.508,1.508,0,0,0,.808,1.426Z" transform="translate(-227.143 -139.059)" fill="#ffc89e"/><path d="M229.6,144.145a.253.253,0,0,1-.089-.018.218.218,0,0,1-.133-.207l.011-1.6-2.1-1.044a1.728,1.728,0,0,1-.931-1.637l.067-1.146a.221.221,0,0,1,.1-.171.226.226,0,0,1,.2-.024l4.1,1.43a1.41,1.41,0,0,1,.955,1.475,2.8,2.8,0,0,1-.855,1.768l-1.166,1.115A.214.214,0,0,1,229.6,144.145Zm-2.747-5.332-.051.853a1.289,1.289,0,0,0,.691,1.215l2.219,1.1a.219.219,0,0,1,.122.2l-.009,1.215.786-.751a2.366,2.366,0,0,0,.72-1.488.97.97,0,0,0-.657-1.013Z" transform="translate(-226.355 -138.286)" fill="#ff7e64"/></g><g transform="translate(0.891 5.691)"><path d="M232.218,153.564l-.013,1.741,1.166-1.115a2.583,2.583,0,0,0,.788-1.628h0a1.2,1.2,0,0,0-.808-1.244l-3.553-1.2-.067,1.146a1.508,1.508,0,0,0,.808,1.426Z" transform="translate(-229.505 -149.898)" fill="#ffc89e"/><path d="M231.426,154.749a.253.253,0,0,1-.089-.018.218.218,0,0,1-.133-.207l.013-1.606-1.559-.811a1.731,1.731,0,0,1-.928-1.635l.067-1.146a.221.221,0,0,1,.1-.171.225.225,0,0,1,.2-.027l3.553,1.2a1.409,1.409,0,0,1,.957,1.475,2.813,2.813,0,0,1-.855,1.768l-1.166,1.115A.225.225,0,0,1,231.426,154.749Zm-2.2-5.106-.051.855a1.285,1.285,0,0,0,.691,1.215l1.681.875a.225.225,0,0,1,.12.2L231.654,154l.786-.751a2.366,2.366,0,0,0,.72-1.488.97.97,0,0,0-.657-1.013Z" transform="translate(-228.727 -149.119)" fill="#ff7e64"/></g></g><g transform="translate(10.977 31.291)"><path d="M49.652,145.856a.223.223,0,0,1-.222-.222v-5.612a.222.222,0,0,1,.444,0v5.612A.223.223,0,0,1,49.652,145.856Z" transform="translate(-49.43 -139.8)" fill="#080717"/></g><g transform="translate(8.17 34.095)"><path d="M42.624,152.874H37.012a.222.222,0,1,1,0-.444h5.612a.222.222,0,1,1,0,.444Z" transform="translate(-36.79 -152.43)" fill="#080717"/></g></svg>