<svg xmlns="http://www.w3.org/2000/svg" width="78.768" height="52.151" viewBox="0 0 78.768 52.151"><g transform="translate(-0.002 0.007)"><g transform="translate(0.002 -0.008)"><g transform="translate(19.19 1.522)"><rect width="7.998" height="10.688" transform="matrix(-0.811, -0.586, 0.586, -0.811, 6.483, 25.148)" fill="#ffc89e"/><path d="M81.59,57.233l3.7-5.123,6.1,4.4-2.193,4.411C86.705,60.32,82.749,59.705,81.59,57.233Z" transform="translate(-79.434 -39.996)" fill="#ff7e64"/><path d="M95.89,14.017l-1.463-.628A8.941,8.941,0,0,0,83.26,16.981a2.951,2.951,0,1,0-2.036,5.531,9.269,9.269,0,0,0,5.56,9.555l1.162.5a6.4,6.4,0,0,0,8.4-3.362l2.909-6.792A6.4,6.4,0,0,0,95.89,14.017Z" transform="translate(-77.629 -10.872)" fill="#ffc89e"/><path d="M107.27,11.671,103.359,10a6.274,6.274,0,0,0-8.236,3.3l-.563,1.313a2.949,2.949,0,0,1,.631,5.154,1.442,1.442,0,0,0,1.9-.654l.918-1.818.6-.115a3.877,3.877,0,0,0,2.334-1.431l.84-1.081c9.419,1.63,8.849,5.411,8.849,5.411A6.4,6.4,0,0,0,107.27,11.671Z" transform="translate(-89.01 -8.527)" fill="#080717"/><g transform="translate(7.27 8.79)"><g transform="translate(8.868 4.357)"><path d="M138.174,62.341a3.141,3.141,0,0,1-1.858-5.678h0a3.142,3.142,0,1,1,1.858,5.678Zm-1.552-5.256a2.619,2.619,0,1,0,3.66.568,2.621,2.621,0,0,0-3.66-.568Z" transform="translate(-135.029 -56.059)" fill="#797979"/></g><g transform="translate(3.041 1.034)"><path d="M115.907,49.642a3.084,3.084,0,0,1-.489-.039,3.105,3.105,0,1,1,.489.039Zm-.01-5.761a2.657,2.657,0,1,0,.411.034A2.485,2.485,0,0,0,115.9,43.88Z" transform="translate(-112.759 -43.356)" fill="#797979"/></g><path d="M105.208,41.884a.29.29,0,0,1-.12-.029L101.278,39.9a.262.262,0,1,1,.241-.466l3.809,1.954a.26.26,0,0,1,.113.353A.265.265,0,0,1,105.208,41.884Z" transform="translate(-101.136 -39.406)" fill="#797979"/><g transform="translate(8.752 4.877)"><path d="M135.8,58.982a.3.3,0,0,1-.1-.021l-.955-.413a.261.261,0,0,1,.207-.479l.955.413a.26.26,0,0,1,.136.343A.257.257,0,0,1,135.8,58.982Z" transform="translate(-134.587 -58.047)" fill="#797979"/></g></g><path d="M122.233,50.765c-.222.426-.183.887.089,1.028s.672-.089.892-.515.183-.887-.089-1.028S122.456,50.339,122.233,50.765Z" transform="translate(-109.337 -38.592)" fill="#080717"/><path d="M140.193,61.238c-.222.426-.183.887.089,1.028s.672-.089.892-.515.183-.887-.089-1.028S140.416,60.812,140.193,61.238Z" transform="translate(-122.598 -46.325)" fill="#080717"/><g transform="translate(12.308 17.153)"><path d="M122.1,73.476a.2.2,0,0,1-.039,0,1.94,1.94,0,0,1-1.674-1.834.259.259,0,0,1,.251-.269h.01a.26.26,0,0,1,.262.251,1.424,1.424,0,0,0,1.23,1.334.261.261,0,0,1,.22.3A.264.264,0,0,1,122.1,73.476Z" transform="translate(-120.389 -71.37)" fill="#ff7e64"/></g><g transform="translate(13.505 8.821)"><path d="M128.015,41.1a.254.254,0,0,1-.188-.081,3.087,3.087,0,0,0-2.543-.924.262.262,0,1,1-.11-.513,3.578,3.578,0,0,1,3.032,1.075.262.262,0,0,1-.191.442Z" transform="translate(-124.966 -39.525)" fill="#080717"/></g><g transform="translate(19.022 11.998)"><path d="M148.716,53.471a.265.265,0,0,1-.22-.118,2.678,2.678,0,0,0-2.179-1.162.252.252,0,0,1-.267-.254.264.264,0,0,1,.254-.269,3.208,3.208,0,0,1,2.632,1.4.261.261,0,0,1-.076.361A.246.246,0,0,1,148.716,53.471Z" transform="translate(-146.05 -51.668)" fill="#080717"/></g><g transform="translate(4.802 6.954)"><path d="M92.355,36.274a.262.262,0,0,1-.22-.4,3.123,3.123,0,0,0,.463-2.049,1.467,1.467,0,0,0-.764-.942.261.261,0,0,1,.256-.455A1.986,1.986,0,0,1,93.106,33.7a3.617,3.617,0,0,1-.531,2.457A.262.262,0,0,1,92.355,36.274Z" transform="translate(-91.702 -32.392)" fill="#ff7e64"/></g><g transform="translate(12.879 0.527)"><path d="M122.834,9.274a.268.268,0,0,1-.11-.024A.26.26,0,0,1,122.6,8.9a2.326,2.326,0,0,1,2.179-1.073.261.261,0,0,1,.243.277.264.264,0,0,1-.277.243c-.013,0-1.277-.068-1.672.774A.262.262,0,0,1,122.834,9.274Z" transform="translate(-122.573 -7.827)" fill="#080717"/></g><g transform="translate(12.8)"><path d="M122.8,7.261a.251.251,0,0,1-.086-.016.262.262,0,0,1-.16-.335.486.486,0,0,0-.157-.615.262.262,0,0,1,.272-.447,1.016,1.016,0,0,1,.382,1.238A.27.27,0,0,1,122.8,7.261Z" transform="translate(-122.272 -5.811)" fill="#080717"/></g></g><path d="M23.885,93.5l7.09-9.325a5.107,5.107,0,0,1,7.237-.911l3.312,2.627,1.444-1.533h.065a5.755,5.755,0,0,1,5.641,4.623L53.251,112.5H21.14Z" transform="translate(-15.61 -60.66)" fill="#e2f864"/><g transform="translate(0 32.838)"><path d="M124.2,153.3h.767a2.114,2.114,0,0,0,1.986-1.389h0a.938.938,0,0,0-.882-1.258H119.63Z" transform="translate(-88.331 -144.07)" fill="#ff7e64"/><path d="M8.277,125.5l-6.97,9.184a6.308,6.308,0,0,0,6.316,9.987L29.46,140.1l2.635,1.845a2.919,2.919,0,0,0,2.9.256l.722-.335h0a2.71,2.71,0,0,0,2.923.052l.607-.374-.7-.866.235-.026a2.08,2.08,0,0,0,1.771-1.5h0l-5.617-5.615a5.089,5.089,0,0,0-4.286-1.444l-15.79,2.148,4.173-4.573C19.028,129.673,16.38,125.5,8.277,125.5Z" transform="translate(-0.002 -125.5)" fill="#ffc89e"/><g transform="translate(31.36 12.497)"><path d="M124.214,177.4a.254.254,0,0,1-.173-.065l-4.092-3.611a.261.261,0,0,1,.345-.392l4.092,3.611a.261.261,0,0,1,.024.369A.265.265,0,0,1,124.214,177.4Z" transform="translate(-119.861 -173.264)" fill="#ff7e64"/></g><g transform="translate(32.803 10.009)"><path d="M130.935,169.129a.275.275,0,0,1-.178-.068l-5.3-4.851a.261.261,0,1,1,.353-.385l5.3,4.851a.261.261,0,0,1,.016.369A.249.249,0,0,1,130.935,169.129Z" transform="translate(-125.377 -163.757)" fill="#ff7e64"/></g></g><g transform="translate(8.332 41.322)"><path d="M32.111,159.415a.262.262,0,0,1-.039-.521l6.258-.963a.262.262,0,0,1,.078.518l-6.258.963Z" transform="translate(-31.849 -157.929)" fill="#ff7e64"/></g><g transform="translate(18.765 32.276)"><path d="M71.983,128.349a.253.253,0,0,1-.181-.073.261.261,0,0,1-.008-.369l4.275-4.474a.261.261,0,0,1,.377.361l-4.275,4.474A.269.269,0,0,1,71.983,128.349Z" transform="translate(-71.722 -123.352)" fill="#080717"/></g><path d="M128.065,191.249H97.15v-.568a1.87,1.87,0,0,1,1.871-1.871h29.045Z" transform="translate(-71.732 -139.408)" fill="#080717"/><path d="M169.46,135.1h28.111l6.177-18.671a2.787,2.787,0,0,0-2.645-3.663H178.863a2.788,2.788,0,0,0-2.645,1.913Z" transform="translate(-125.123 -83.263)" fill="#080717"/><g transform="translate(61.116 38.866)"><circle cx="1.981" cy="1.981" r="1.981" transform="translate(0.262 0.262)" fill="#fff"/><path d="M235.832,153.024a2.242,2.242,0,1,1,2.242-2.242A2.245,2.245,0,0,1,235.832,153.024Zm0-3.959a1.719,1.719,0,1,0,1.719,1.719A1.722,1.722,0,0,0,235.832,149.066Z" transform="translate(-233.59 -148.54)" fill="#080717"/></g><path d="M188.688,2.695a9.224,9.224,0,0,0-14.649,10.884l-1.379,5.144,5.144-1.379A9.224,9.224,0,0,0,188.688,2.695Z" transform="translate(-127.486 0.008)" fill="#e3e3e3"/><g transform="translate(51.013 6.343)"><path d="M196.98,29.719a.268.268,0,0,1-.186-.076l-1.74-1.74a.261.261,0,0,1,.369-.369l1.554,1.554,4.775-4.775a.261.261,0,1,1,.369.369l-4.955,4.961A.261.261,0,0,1,196.98,29.719Z" transform="translate(-194.978 -24.237)" fill="#797979"/></g></g></g></svg>